<svg width="443" height="1080" fill="none" xmlns="http://www.w3.org/2000/svg"><path d="M392.041 730.297c-20.874 5.309-18.751 6.017-20.52 16.635-2.123 12.743 4.245 25.485 4.245 25.485s-.353 13.804-7.783 21.945c-7.43 8.141-36.443 12.034-36.443 12.034l-1.415 9.203s12.03.708 16.275 10.618c3.538 7.787 2.123 21.591-4.245 26.901-7.784 6.371-14.506-.354-22.998 10.264-8.137 10.265-8.137 14.866-6.015 26.546 5.308 27.962-3.891 52.031-28.304 68.313-35.381 23.715-90.929-1.77-124.54-16.636-12.03-5.309-25.828-11.68-38.565-14.866-12.383-3.185-21.229-4.247-32.904-1.769-15.568 3.185-23.351 13.45-32.904 27.254-7.076 10.618-12.383 22.299-18.752 33.271-8.845 15.215-21.936 28.315-26.89 45.655C7.1 1042.48 2.83 1060.53 0 1080V0c32.5 0 66.185-.966 98.735 2.928 17.337 2.123 34.32 5.309 50.949 9.91 4.245 1.416 8.137 2.478 12.383 3.894l6.368 2.123c2.123.708 4.246 1.416 6.015 2.124l5.661 2.124 3.538 1.77h.708l.707.353h.354l1.415.708c3.892 1.77 7.784 3.54 11.322 5.31 30.074 14.865 55.548 34.333 78.192 53.446 22.643 19.113 42.81 38.935 59.085 59.11 8.492 9.911 15.568 20.175 22.29 30.086 3.184 4.955 6.369 9.91 8.845 14.866 1.416 2.477 2.831 4.955 3.892 7.433 1.415 2.477 2.477 4.955 3.538 7.079 9.199 19.113 14.506 36.811 17.337 51.676 1.769 7.433 2.123 14.159 2.476 19.822.354 6.017.354 10.972 0 14.866-.353 3.893-1.769 17.697-2.122 19.467 0 .354-.354 1.416-.354 2.478 11.675 24.422 18.398 53.446 20.521 79.639 2.476 30.793-1.416 80.346-9.907 110.078-7.076 24.069-15.214 13.804-12.737 52.739 1.061 15.928 10.26 33.625 14.86 49.199 6.368 21.591 13.445 36.103 24.766 55.57 11.322 19.114 21.229 33.98 7.43 47.076-20.52 19.113-26.889 20.175-44.226 24.423z" fill="#000" fill-opacity=".1"/></svg>