<?xml version="1.0" encoding="utf-8"?>
<!-- Generator: Adobe Illustrator 24.1.0, SVG Export Plug-In . SVG Version: 6.00 Build 0)  -->
<svg version="1.1" id="Layer_1" xmlns="http://www.w3.org/2000/svg" xmlns:xlink="http://www.w3.org/1999/xlink" x="0px" y="0px"
	 viewBox="0 0 700 430" style="enable-background:new 0 0 700 430;" xml:space="preserve">
<style type="text/css">
	.st0{display:none;}
	.st1{display:inline;fill:#E0E0E0;}
	.st2{fill:#4C4C4C;}
	.st3{fill:#191919;}
	.st4{fill:#333333;}
	.st5{fill:#263238;}
	.st6{fill:#EBEBEB;}
	.st7{fill:#E0E0E0;}
	.st8{fill:#F5F5F5;}
	.st9{fill:#6ABF94;}
	.st10{fill:#569976;}
	.st11{fill:#FAFAFA;}
	.st12{opacity:0.5;}
</style>
<g id="Background_Complete">
</g>
<g id="Background_Simple" class="st0">
	<path class="st1" d="M191.7,414.9h312.8c20.3-11.7,38.8-26.5,55-44.7c50.7-57.3,69.4-154.1,43.3-225.9l-2.4-5.2
		c-19.3-41.6-59.7-70.3-105.9-73.7c-6.5-0.5-13-0.5-19.5,0.1c-43.3,3.6-83.9,30.1-104,68c-11.8,22.3-17.7,48.9-37,65.4
		c-25.1,21.4-62.7,17.5-95.6,12.5c-32.9-5.1-70.6-8.9-95.6,12.7c-15.7,13.5-22.7,34.6-24.1,55C115.1,332.5,146.7,384.7,191.7,414.9z
		"/>
</g>
<g id="Plant">
</g>
<g id="Floor">
</g>
<g id="Envelope_3">
</g>
<g id="Envelope_2">
</g>
<g id="Envelope_1">
</g>
<g id="Character">
</g>
<g>
	<g>
		<g>
			<g>
				<g>
					<g>
						<path class="st2" d="M596.4,425.2H93.3c-8.1,0-14.7-6.6-14.7-14.7V81.3c0-4.4,3.6-7.8,7.8-7.8h517.9c3.8,0,6.8,3,6.8,6.8
							v330.2C611.2,418.6,604.6,425.2,596.4,425.2z"/>
					</g>
				</g>
			</g>
		</g>
		<g>
			<g>
				<g>
					<g>
						<path class="st2" d="M619.4,430H70.2c-7.7,0-13.9-6.2-13.9-13.9v-16.9h577v16.9C633.3,423.8,627.1,430,619.4,430z"/>
					</g>
				</g>
			</g>
		</g>
		<g>
			<g>
				<g>
					<g>
						<rect x="92.8" y="87.4" class="st3" width="502.5" height="297.1"/>
					</g>
				</g>
			</g>
		</g>
		<g>
			<g>
				<g>
					<g>
						<polygon class="st4" points="292.4,399.2 299.5,410.6 400.3,410.6 406.9,399.2 						"/>
					</g>
				</g>
			</g>
		</g>
	</g>
	<g>
		<path class="st5" d="M547,409.5c0,0.1-102,0.3-227.8,0.3c-125.9,0-227.8-0.1-227.8-0.3c0-0.1,102-0.3,227.8-0.3
			C444.9,409.3,547,409.4,547,409.5z"/>
	</g>
	<g>
		<g>
			<g>
				<g>
					<path class="st6" d="M32,203.4c0,0-8.2-0.6-7.5,18s2.6,28.4,2.6,28.4s-0.2,4.2-3.5,3.4c-3.2-0.8-9.1-4.8-12.2-1.8
						c-3,3.1-1.9,7.8,2.1,13.5c4.1,5.6,12.5,18.2,13.3,19.4c0.7,1.1,1,3.3-1.2,3c-2.2-0.2-17.5-5.4-19.5,2
						c-2,7.4,11.9,21.1,13.4,22.6s1.5,2.5,1,3.5c-0.6,0.9-5.6-1.3-10-2.5c-4.4-1.3-9.8-2-10.6,2.3s5.3,17.1,28.2,30.5l11.1,5.5
						l10.5-6.7c21.5-15.6,26.3-28.9,25.1-33.2c-1.2-4.3-6.5-3-10.7-1.3c-4.3,1.7-8.9,4.5-9.7,3.6c-0.7-0.8-0.7-1.8,0.6-3.6
						c1.3-1.6,13.8-16.8,11.1-23.9c-2.7-7.1-17.4-0.5-19.6,0c-2.2,0.4-2.1-1.7-1.5-2.8c0.6-1.2,7.8-14.6,11.3-20.6
						c3.5-6,4.1-10.9,0.7-13.6c-3.3-2.6-8.8,1.9-11.9,3c-3,1.1-3.8-2.9-3.8-2.9s0.9-10.1-0.2-28.5c-1.1-18.5-9.5-17.1-9.5-17.1"/>
				</g>
			</g>
			<g>
				<g>
					<g>
						<path class="st7" d="M32.6,220c0,0,0,0.1,0,0.4s0,0.6,0.1,1.1c0.1,1,0.2,2.5,0.3,4.4c0.2,3.8,0.6,9.3,0.9,16.1
							c0.7,13.6,1.6,32.4,2.5,53.2c0.9,20.8,1.7,39.6,2.4,53.2c0.3,6.8,0.6,12.3,0.8,16.1c0.1,1.9,0.2,3.4,0.2,4.4
							c0,0.5,0,0.9,0,1.1c0,0.3,0,0.4,0,0.4s0-0.1,0-0.4s0-0.6-0.1-1.1c-0.1-1-0.2-2.5-0.3-4.4c-0.2-3.8-0.6-9.3-0.9-16.1
							C37.9,334.8,37,316,36,295.2c-0.9-20.8-1.7-39.6-2.4-53.2c-0.3-6.8-0.6-12.3-0.8-16.1c-0.1-1.9-0.2-3.4-0.2-4.4
							c0-0.5,0-0.9,0-1.1C32.6,220.2,32.6,220,32.6,220z"/>
					</g>
				</g>
			</g>
			<g>
				<g>
					<g>
						<path class="st7" d="M19.7,257.2c0,0,0.3,0.2,0.7,0.6c0.4,0.4,1,0.9,1.7,1.7c1.4,1.4,3.5,3.5,5.5,5.8c2,2.2,4,4.4,5.4,5.9
							c0.6,0.7,1.2,1.3,1.6,1.8c0.4,0.4,0.6,0.7,0.6,0.7s-0.3-0.2-0.7-0.6s-1-0.9-1.7-1.7c-1.4-1.4-3.4-3.6-5.5-5.8s-4-4.3-5.5-5.9
							c-0.6-0.7-1.2-1.3-1.6-1.7C19.9,257.4,19.7,257.2,19.7,257.2z"/>
					</g>
				</g>
			</g>
			<g>
				<g>
					<g>
						<path class="st7" d="M36.3,273.3c-0.1-0.1,4-4.3,9-9.4s9.2-9.2,9.3-9.1c0.1,0.1-4,4.3-9,9.4C40.6,269.2,36.4,273.3,36.3,273.3
							z"/>
					</g>
				</g>
			</g>
			<g>
				<g>
					<g>
						<path class="st7" d="M36.3,305.2c0,0,0.3-0.2,0.8-0.5c0.6-0.3,1.3-0.7,2.1-1.2c1.8-1,4.4-2.4,7-4.2c2.7-1.6,5.1-3.3,6.9-4.4
							c0.8-0.5,1.5-1,2-1.4c0.5-0.3,0.8-0.5,0.8-0.5s-0.2,0.2-0.7,0.6s-1.1,0.9-2,1.5c-1.7,1.2-4.1,2.8-6.8,4.6
							c-2.7,1.6-5.3,3-7.1,4.1c-0.9,0.5-1.7,0.8-2.2,1.1C36.7,305.2,36.3,305.3,36.3,305.2z"/>
					</g>
				</g>
			</g>
			<g>
				<g>
					<g>
						<path class="st7" d="M18.1,294c0,0,0.3,0.1,0.8,0.4c0.5,0.3,1.1,0.6,2,1.1c1.7,0.9,4,2.3,6.5,3.8c2.5,1.5,4.8,2.8,6.5,4
							c0.8,0.5,1.5,0.9,1.9,1.2c0.4,0.3,0.7,0.5,0.7,0.5s-0.3-0.1-0.8-0.4s-1.1-0.6-2-1.1c-1.7-0.9-4-2.3-6.5-3.8
							c-2.5-1.5-4.8-2.8-6.5-4c-0.8-0.5-1.5-0.9-1.9-1.2C18.3,294.2,18,294.1,18.1,294z"/>
					</g>
				</g>
			</g>
			<g>
				<g>
					<g>
						<path class="st7" d="M14.4,322.2c0,0,0.4,0.1,1,0.5c0.7,0.4,1.5,0.8,2.5,1.4c2.1,1.2,5.2,2.9,8.4,4.8c3.3,1.9,6.2,3.7,8.3,4.9
							c1,0.6,1.8,1.1,2.5,1.5c0.6,0.4,0.9,0.6,0.9,0.6s-0.4-0.1-1-0.5c-0.7-0.4-1.5-0.8-2.5-1.4c-2.1-1.2-5.2-2.9-8.4-4.8
							c-3.3-1.9-6.2-3.7-8.3-4.9c-1-0.6-1.8-1.1-2.5-1.5C14.7,322.5,14.4,322.2,14.4,322.2z"/>
					</g>
				</g>
			</g>
			<g>
				<g>
					<g>
						<path class="st7" d="M37.6,335.5c0,0,0.3-0.2,0.9-0.6c0.7-0.4,1.6-1,2.6-1.6c2.2-1.4,5.4-3.2,8.7-5.5c3.4-2.2,6.4-4.3,8.6-5.8
							c1-0.7,1.9-1.3,2.5-1.8c0.6-0.4,0.9-0.6,1-0.6c0,0-0.3,0.3-0.9,0.7c-0.6,0.5-1.4,1.1-2.5,1.9c-2.1,1.6-5.2,3.7-8.5,5.9
							c-3.4,2.2-6.5,4.1-8.8,5.4c-1.1,0.6-2.1,1.2-2.7,1.5C38,335.3,37.6,335.5,37.6,335.5z"/>
					</g>
				</g>
			</g>
		</g>
		<g>
			<g>
				<g>
					<g>
						<polygon class="st7" points="54.1,354.6 23.6,354.6 33.6,430 44.2,430 						"/>
					</g>
				</g>
			</g>
			<g>
				<g>
					<g>
						<g>
							<path class="st8" d="M25.2,363.9c0,0,0,0.1,0.2,0.3c0.1,0.2,0.4,0.4,0.7,0.5c0.7,0.3,2,0.3,3.3-0.4c1.2-0.7,2.3-2,4-2.6
								c1.6-0.6,3.7-0.5,5.6,0.1c1.9,0.6,3.7,1.6,5.2,2.5c1.5,0.9,2.9,1.7,4.3,2.2c1.2,0.5,2.3,0.8,3.2,0.9c0.4,0,0.7,0.1,0.9,0.1
								c0.2,0,0.3,0,0.3,0c0-0.1-1.7-0.1-4.2-1.2c-1.2-0.6-2.6-1.4-4.2-2.3s-3.3-2-5.3-2.6c-2-0.6-4.2-0.8-5.9-0.1
								c-0.9,0.3-1.6,0.8-2.2,1.4c-0.6,0.5-1.2,1-1.7,1.3c-1.1,0.7-2.3,0.7-2.9,0.5C25.5,364.2,25.3,363.8,25.2,363.9z"/>
						</g>
					</g>
				</g>
			</g>
			<g>
				<g>
					<g>
						<g>
							<path class="st8" d="M26.3,377.8c0,0,0.2-0.3,0.7-0.8c0.5-0.5,1.3-1.1,2.4-1.5c1.1-0.4,2.6-0.7,4.3-0.6
								c1.6,0.1,3.5,0.4,5.3,0.7c1.9,0.3,3.8,0.5,5.5,0.2c1.6-0.2,3.2-0.7,4.3-1.2c1.1-0.5,2-1.1,2.5-1.5c0.6-0.4,0.8-0.7,0.8-0.7
								c-0.1-0.1-1.2,1-3.6,1.9c-1.1,0.5-2.5,0.9-4.2,1.1c-1.6,0.2-3.5,0.1-5.3-0.3c-1.9-0.3-3.7-0.6-5.4-0.7
								c-1.7,0-3.3,0.3-4.4,0.8c-1.2,0.5-2,1.2-2.4,1.7c-0.2,0.3-0.4,0.5-0.5,0.7C26.4,377.7,26.3,377.8,26.3,377.8z"/>
						</g>
					</g>
				</g>
			</g>
			<g>
				<g>
					<g>
						<g>
							<path class="st8" d="M50.7,385.2c0,0-0.3-0.2-0.8-0.4c-0.6-0.2-1.4-0.4-2.5-0.5c-1.1-0.1-2.4,0-3.9,0.2
								c-1.4,0.2-2.9,0.6-4.6,0.9c-1.6,0.3-3.2,0.6-4.6,0.5c-1.4,0-2.6-0.3-3.7-0.8c-1.9-0.8-2.6-2.1-2.7-2c0,0,0.1,0.3,0.5,0.8
								c0.4,0.5,1.1,1.1,2,1.5c1,0.5,2.2,0.8,3.8,0.9c1.4,0.1,3-0.1,4.7-0.5c1.6-0.3,3.2-0.7,4.6-1c1.4-0.3,2.6-0.4,3.8-0.3
								C49.5,384.6,50.7,385.3,50.7,385.2z"/>
						</g>
					</g>
				</g>
			</g>
			<g>
				<g>
					<g>
						<g>
							<path class="st8" d="M29,395.7c0,0.1,1.1-0.7,2.9-0.3c0.9,0.2,1.9,0.6,3.2,1.1c1.1,0.5,2.5,1,4.1,1.1c3,0.3,5.7-0.7,7.3-1.7
								c0.8-0.5,1.4-1,1.8-1.4c0.4-0.4,0.6-0.6,0.5-0.6c-0.1-0.1-0.9,0.8-2.5,1.7c-1.6,0.9-4.2,1.8-7.1,1.5
								c-2.8-0.2-5.1-1.9-7.1-2.1c-1-0.1-1.8,0-2.3,0.2C29.2,395.5,29,395.7,29,395.7z"/>
						</g>
					</g>
				</g>
			</g>
			<g>
				<g>
					<g>
						<g>
							<path class="st8" d="M30.8,410.1c0,0.1,1,0,2.5-0.5c1.5-0.5,3.5-1.7,5.7-2.5c1.1-0.4,2.2-0.7,3.3-0.7c1,0,1.9,0.2,2.6,0.6
								c1.4,0.7,1.8,1.7,1.9,1.6c0,0,0-0.3-0.3-0.6c-0.2-0.4-0.7-0.9-1.4-1.3s-1.6-0.7-2.7-0.7c-1.1,0-2.2,0.2-3.5,0.7
								c-2.3,0.9-4.2,2.1-5.6,2.7C31.7,409.9,30.8,410.1,30.8,410.1z"/>
						</g>
					</g>
				</g>
			</g>
			<g>
				<g>
					<g>
						<g>
							<path class="st8" d="M32.2,416.9c0,0.1,0.7,0.3,1.9,0.6s2.9,0.6,4.9,0.8c1.9,0.2,3.7,0.2,4.9,0.1s2-0.2,2-0.2
								c0-0.1-3,0-6.9-0.4C35.2,417.5,32.3,416.7,32.2,416.9z"/>
						</g>
					</g>
				</g>
			</g>
		</g>
	</g>
	<g>
		<g>
			<g>
				<g>
					<path class="st9" d="M611.4,337.4c-4.3-2.6-9.1-4.4-14.1-4.9c-2.3-0.2-4.9-0.2-6.7,1.2c-0.4,0.3-0.8,0.7-0.7,1.2
						c0.1,0.4,0.4,0.6,0.6,0.8C596.3,340.1,605,340.7,611.4,337.4"/>
				</g>
			</g>
			<g>
				<g>
					<path class="st9" d="M611.1,337c-3.3-2.5-6.4-5-9.1-8c-2.7-3-4.9-6.6-5.7-10.6c-0.2-1.2-0.3-2.5,0.4-3.6
						C604,320.4,609.7,327.8,611.1,337"/>
				</g>
			</g>
			<g>
				<g>
					<path class="st9" d="M611.4,337.3c-0.5-4-0.7-8.1,0.2-12c0.9-4,3-7.6,6.4-9.9c1.2,2.9,0.7,6.3-0.2,9.4
						c-1.3,4.8-3.6,9.2-6.3,13.3"/>
				</g>
			</g>
			<g>
				<g>
					<path class="st9" d="M618.5,350.1c-4.4,0.5-8.1,2.8-11.4,5.8c-3.3,2.9-5.6,6.9-6.5,11.2c4.3-0.3,7.8-3.3,10.5-6.6
						C613.7,357,615.6,353.3,618.5,350.1"/>
				</g>
			</g>
			<g>
				<g>
					<path class="st9" d="M620,352.1c-3.5-8.6-2.2-19,3.3-26.5C625.7,334.4,624.9,344.4,620,352.1"/>
				</g>
			</g>
			<g>
				<g>
					<path class="st9" d="M629.5,363.4c-4-0.2-7.9,0.7-11.4,2.6s-6.2,5-8,8.4c-0.2,0.5-0.4,1.1-0.1,1.5c0.3,0.4,0.8,0.4,1.3,0.4
						c3.9-0.2,7.2-2.5,10-5.2C624.1,368.7,626.5,365.6,629.5,363.4"/>
				</g>
			</g>
			<g>
				<g>
					<path class="st9" d="M629.2,362.8c-2-6.5-2.1-13.6-0.4-20.1c0.7-2.6,1.9-5.3,4.3-6.5c0.2-0.1,0.4-0.2,0.6-0.1
						c0.2,0.1,0.3,0.3,0.4,0.5c0.8,1.8,1.1,3.8,1,5.8c-0.1,2-0.5,4-0.9,5.9c-0.7,3.6-1.1,7.4-3.2,10.5c-0.5,0.7-0.9,1.5-1.2,2.3
						c-0.4,0.8-0.4,1-0.7,1.7"/>
				</g>
			</g>
			<g>
				<g>
					<path class="st9" d="M654.2,366.5c-1.8-7,0.1-15.5,4.6-21.3c0.3-0.4,0.7-0.9,1.3-0.8c0.8,0.1,1,1.1,1,2
						C660.7,353.5,658.3,360.5,654.2,366.5"/>
				</g>
			</g>
			<g>
				<g>
					<path class="st9" d="M656.4,368c8.5,2.2,18.4,0.1,25.5-5.2c-4.2-2.1-9.1-2.7-13.8-1.7C663.5,362.2,659.4,364.3,656.4,368"/>
				</g>
			</g>
			<g>
				<g>
					<path class="st9" d="M658.3,363.4c4.8-7.8,14-12.9,23.2-13.4c-1,3.8-4.1,6.6-7.5,8.3c-3.5,1.7-7.3,2.5-11.1,3.3
						C661.3,361.9,659.3,362.2,658.3,363.4"/>
				</g>
			</g>
			<g>
				<g>
					<path class="st9" d="M654.7,340.6c1.3-4.5,2.6-8.9,2.9-13.5c0.3-4.6-0.3-9.4-2.7-13.4c-4.5,8.6-5,18.8-0.4,27.4"/>
				</g>
			</g>
			<g>
				<g>
					<path class="st9" d="M669.7,333c5.3-9.5,16-17.1,26.7-18.2C692.3,325.2,680.9,333.2,669.7,333"/>
				</g>
			</g>
			<g>
				<g>
					<path class="st9" d="M666.5,334.8c7.8,1.2,14.4,6.2,21.7,9.2c1.5,0.6,3.3,1.1,4.9,0.9c1.6-0.2,3.4-1.3,3.7-2.9
						c0.3-1.3-0.3-2.8-1.3-3.9s-2.2-1.6-3.6-2.1c-7.9-3.4-16.5-3.4-24.8-1.4"/>
				</g>
			</g>
			<g>
				<g>
					<path class="st9" d="M661.9,340.3c1.7,0.5,2.3,1.4,3.8,2.6c4.8,4.1,10.5,7,16.5,8.4c0.6,0.2,1.4,0.2,1.7-0.3
						c0.3-0.5-0.1-1.1-0.4-1.5c-2.5-3.1-6.2-5.4-10-6.8c-3.8-1.4-7.1-3.1-11.7-2.7"/>
				</g>
			</g>
			<g>
				<g>
					<path class="st9" d="M656.8,307.3c6.3,5.9,15.2,8.9,24,8.1c0.4,0,0.8-0.1,1.1-0.4c0.6-0.6-0.1-1.6-0.8-2.2
						C674,307.3,665.4,305.1,656.8,307.3"/>
				</g>
			</g>
			<g>
				<g>
					<path class="st9" d="M662.9,305.1c8.4-6.3,19.9-8.2,29.9-4.9c-3.8,3.7-8.9,5.7-14.2,6.2C673.3,306.9,668,306.3,662.9,305.1"/>
				</g>
			</g>
			<g>
				<g>
					<path class="st9" d="M660.5,289.8c-0.7-7-0.2-12.6-0.7-19.6c0-0.6-0.2-1.2-0.7-1.4c-0.7-0.3-1.3,0.6-1.6,1.3
						c-2.1,6.5-0.9,13.9,2.9,19.5"/>
				</g>
			</g>
			<g>
				<g>
					<path class="st9" d="M660,290.7c4.8-2.9,8.3-6.8,11.6-11.3c2.3-3.1,4.3-6.9,3.8-10.8c-3.3-0.1-6.3,1.7-8.4,4.2
						s-3.4,5.5-4.3,8.6C661.7,284.5,661.1,287.6,660,290.7"/>
				</g>
			</g>
			<g>
				<g>
					<path class="st9" d="M671.3,287.5c10.5-3.9,20.2-9.6,28.7-16.9c-3.5-1.4-7.3-0.5-10.8,0.8c-7.8,3.1-14.2,8.4-18,15.9"/>
				</g>
			</g>
			<g>
				<g>
					<path class="st9" d="M663.2,294.5c5.3,0.6,10.7,0.9,15.9,0.1s10.1-2.9,14.8-5c0.4-0.2,0.8-0.4,1-0.8c0.2-0.4,0-0.9-0.4-1.2
						c-0.3-0.3-0.8-0.5-1.2-0.6c-5.3-1.4-10.9-0.8-16.1,0.9C672.1,289.7,667.9,291.8,663.2,294.5"/>
				</g>
			</g>
			<g>
				<g>
					<path class="st9" d="M633,307.5c-3.6-7.3-3.4-15.7-0.3-23.3c2.2,3.4,2.4,7.6,2,11.6c-0.4,4-1.6,8-1.7,12.1"/>
				</g>
			</g>
			<g>
				<g>
					<path class="st9" d="M618.6,300.2c-9-0.2-18,3.7-24.1,10.3c4.5,0.7,9.1-0.4,13.2-2.4c4.1-2,7.7-4.8,11.3-7.6"/>
				</g>
			</g>
			<g>
				<g>
					<path class="st9" d="M609,297.1c-4.4-0.4-8.6-0.9-12.9,0.4c-4.3,1.3-8.1,4.3-9.9,8.3c4.2,0.5,8.3-0.6,12.1-2.2
						C602,301.7,605.5,299.4,609,297.1"/>
				</g>
			</g>
			<g>
				<g>
					<path class="st9" d="M623.3,297.2c-4-2.6-8-5.3-12.6-6.3c-4.6-1.1-10-0.3-13.2,3.1c3.8,2.2,8.2,2.4,12.6,2.4
						c4.4,0,9.7-0.1,13.7,1.4"/>
				</g>
			</g>
			<g>
				<g>
					<path class="st9" d="M623.3,297.4c-6.8-6.6-9.3-18.6-6.6-27.7C622,277.8,624.4,287.7,623.3,297.4"/>
				</g>
			</g>
			<g>
				<g>
					<path class="st9" d="M641.9,278.6c1.3-2.9,2.1-6.1,3.4-9.1c1.1-3,2.5-6,4.8-8.4c2.1-2.4,5.2-4.2,8.4-4.4
						c-2,9.1-8.1,17.4-16.3,21.9"/>
				</g>
			</g>
			<g>
				<g>
					<path class="st9" d="M638.5,282.4c-2.1-2.9-4.6-6.9-7.4-9c-2.8-2.1-6.6-3.5-10.1-2.6C624.6,277.1,631.3,281.6,638.5,282.4"/>
				</g>
			</g>
			<g>
				<g>
					<path class="st9" d="M639.2,278.8c-1.4-3.6-2.7-7.1-3.4-10.8c-0.6-3.8-0.2-7.7,1.7-11c3.8,7,4.9,14.5,1.8,21.9"/>
				</g>
			</g>
			<g>
				<g>
					<path class="st9" d="M642,256.9c2.1-7,8.5-12.1,15.3-14.4c0.9-0.3,1.8-0.5,2.7-0.4c0.9,0.1,1.8,0.7,2,1.6
						c0.2,1.2-0.7,2.2-1.6,3C655,251.4,648.7,254.9,642,256.9"/>
				</g>
			</g>
			<g>
				<g>
					<path class="st9" d="M642,251.2c0.3-4.5,0.5-9,2-13.3c1.4-4.3,4.3-8.2,8.3-10.2c0.7,4.6-1.3,9-3.8,12.9
						c-2.4,3.9-5.3,7.6-6.8,12"/>
				</g>
			</g>
			<g>
				<g>
					<path class="st9" d="M641.9,254.4c-1.7-5.1-1.9-11.5-5-15.9c-2.1-3-5.5-5.2-7.3-8.4c-1.2,3-0.8,6.6,0.4,9.6
						c1.3,3,3.4,5.7,5.6,8C637.9,250,639.8,251.9,641.9,254.4"/>
				</g>
			</g>
			<g>
				<g>
					<g>
						<path class="st5" d="M642,403.8c-0.1,0-0.2-33.8-0.3-75.6c0-41.7,0.1-75.7,0.2-75.7c0.1,0,0.2,33.8,0.3,75.7
							C642.2,370,642.1,403.8,642,403.8z"/>
					</g>
				</g>
			</g>
			<g>
				<g>
					<g>
						<path class="st5" d="M671.5,302.4c0,0-0.4,0.2-1.3,0.5c-0.9,0.3-2.1,0.7-3.5,1.2c-2.9,1-7,2.4-11.4,4.3
							c-4.4,1.8-8.4,3.4-10.8,5.4c-1.2,1-1.8,2.1-2.1,2.8c-0.3,0.8-0.4,1.3-0.4,1.3s0-0.1,0-0.3s0.1-0.6,0.2-1c0.3-0.8,0.9-2,2.1-3
							c1.2-1.1,2.8-2,4.7-2.9c1.8-0.9,4-1.8,6.2-2.7c4.4-1.8,8.5-3.3,11.5-4.2c1.5-0.5,2.7-0.8,3.6-1
							C671,302.4,671.5,302.3,671.5,302.4z"/>
					</g>
				</g>
			</g>
			<g>
				<g>
					<g>
						<path class="st5" d="M681.2,278.6c0,0-0.1,0.1-0.4,0.4c-0.3,0.3-0.6,0.6-1.1,1c-1,0.9-2.3,2.1-4.1,3.7
							c-3.5,3.1-8.2,7.3-13.5,12c-5.3,4.7-9.9,9.1-13,12.6c-1.6,1.7-2.8,3-3.7,4.1c-0.4,0.4-0.7,0.8-1,1.1c-0.2,0.2-0.3,0.4-0.4,0.4
							c0,0,0.1-0.2,0.3-0.4c0.2-0.3,0.5-0.7,0.9-1.2c0.8-1,2-2.4,3.6-4.2c3.2-3.5,7.6-8,12.9-12.7c5.3-4.7,10.1-8.8,13.6-11.9
							c1.7-1.4,3.2-2.6,4.2-3.6c0.5-0.4,0.8-0.7,1.1-0.9C681.1,278.7,681.2,278.6,681.2,278.6z"/>
					</g>
				</g>
			</g>
			<g>
				<g>
					<g>
						<path class="st5" d="M656.5,300.5c-0.1-0.1,0.9-2.6,2-5.8c1.1-3.3,1.6-5.9,1.7-5.9c0.1,0-0.2,2.8-1.3,6.1
							c-0.5,1.6-1.1,3-1.6,4.1C656.9,299.9,656.6,300.5,656.5,300.5z"/>
					</g>
				</g>
			</g>
			<g>
				<g>
					<g>
						<path class="st5" d="M642,320.9c0,0-0.3-0.3-0.8-0.9c-0.5-0.7-1.2-1.6-2-2.6c-1.7-2.2-4.2-5.4-6.9-8.8s-5.2-6.5-7-8.7
							c-0.8-1-1.5-1.9-2.1-2.6c-0.5-0.6-0.7-1-0.7-1s0.3,0.3,0.9,0.9c0.5,0.6,1.3,1.4,2.2,2.5c1.8,2.1,4.4,5.2,7.1,8.6
							s5.1,6.6,6.8,8.8c0.8,1.1,1.5,2.1,1.9,2.7C641.8,320.5,642,320.9,642,320.9z"/>
					</g>
				</g>
			</g>
			<g>
				<g>
					<g>
						<path class="st5" d="M635.5,312.6c-0.1,0.1-1.8-1.9-2.7-5.1c-0.7-2.2-0.7-4.2-0.6-5.2h0.2c-0.1,0.4-0.2,0.6-0.2,0.6
							s0-0.2,0-0.6h0.2c0.1,0.9,0.2,2.8,0.9,5C634,310.5,635.6,312.5,635.5,312.6z"/>
					</g>
				</g>
			</g>
			<g>
				<g>
					<g>
						<path class="st5" d="M627,302.1c-0.1,0.1-0.6-0.6-1.9-1.1c-1.2-0.5-3.2-0.6-5.3-0.4c-2.1,0.2-4,0.5-5.3,0.8
							c-1.3,0.3-2.1,0.6-2.1,0.5c0-0.1,0.7-0.4,2.1-0.8c1.3-0.4,3.3-0.8,5.4-1c2.1-0.2,4.2,0,5.5,0.6
							C626.6,301.2,627.1,302,627,302.1z"/>
					</g>
				</g>
			</g>
			<g>
				<g>
					<g>
						<path class="st5" d="M625.1,299.5c0,0.1-1.1-0.4-2.9-1s-4.4-1.2-7.2-1.5c-2.8-0.2-5.5,0-7.4,0.4c-1.8,0.3-3,0.7-3,0.6
							c0,0,0.3-0.1,0.8-0.3c0.5-0.2,1.2-0.4,2.2-0.6c1.8-0.4,4.6-0.7,7.5-0.5s5.6,0.9,7.3,1.6c0.9,0.3,1.6,0.7,2,0.9
							C624.9,299.4,625.1,299.5,625.1,299.5z"/>
					</g>
				</g>
			</g>
			<g>
				<g>
					<g>
						<path class="st5" d="M641.9,288.7c-0.1,0-1.1-3.3-2.1-7.4c-1-4.1-1.7-7.4-1.6-7.5c0.1,0,1.1,3.3,2.1,7.4
							S642,288.7,641.9,288.7z"/>
					</g>
				</g>
			</g>
			<g>
				<g>
					<g>
						<path class="st5" d="M642.1,288.7c-0.1,0-0.7-2.1-2.3-4.4c-1.5-2.3-3.6-3.5-3.5-3.6c0-0.1,0.6,0.1,1.3,0.7
							c0.8,0.5,1.7,1.4,2.5,2.6C641.8,286.4,642.2,288.7,642.1,288.7z"/>
					</g>
				</g>
			</g>
			<g>
				<g>
					<g>
						<path class="st5" d="M642,385.7c-0.1,0-0.2-0.8-0.5-2.2c-0.4-1.4-1.1-3.5-2.2-5.9c-2.3-4.8-6.6-10.9-12-17
							c-2.6-3-5.3-6-7.5-8.7c-2.2-2.7-4.1-5.4-5.4-7.7c-1.3-2.3-2.2-4.4-2.7-5.7c-0.2-0.7-0.4-1.2-0.5-1.6c-0.1-0.4-0.2-0.6-0.1-0.6
							c0,0,0.3,0.8,0.8,2.1c0.5,1.4,1.4,3.4,2.8,5.6c1.3,2.3,3.2,4.9,5.4,7.6c2.2,2.7,4.8,5.6,7.5,8.6c5.4,6.1,9.7,12.2,12,17.1
							c1.1,2.4,1.8,4.5,2.1,6c0.2,0.7,0.3,1.3,0.3,1.7C642,385.5,642,385.7,642,385.7z"/>
					</g>
				</g>
			</g>
			<g>
				<g>
					<g>
						<path class="st5" d="M668.7,355.6c0,0-0.5,0.3-1.4,0.8c-0.9,0.5-2.1,1.3-3.7,2.4c-1.4,1.1-3,2.5-4.8,4.4
							c-1.6,1.7-3.4,3.9-5.2,6c-3.6,4.5-6.8,8.3-8.8,11.5c-1,1.5-1.7,2.8-2.2,3.8c-0.5,0.9-0.7,1.4-0.8,1.4c0,0,0-0.1,0.1-0.4
							c0.1-0.2,0.2-0.6,0.5-1.1c0.4-0.9,1.1-2.3,2.1-3.9c1.9-3.1,5.2-7.1,8.7-11.6c1.7-2.2,3.6-4.3,5.2-6c1.7-1.7,3.4-3.3,4.9-4.4
							s2.8-1.8,3.8-2.3c0.5-0.2,0.8-0.4,1.1-0.5C668.5,355.6,668.7,355.6,668.7,355.6z"/>
					</g>
				</g>
			</g>
			<g>
				<g>
					<g>
						<path class="st5" d="M669.2,365.4c0,0.1-1.1,0.2-2.9,0.4c-1.8,0.2-4.4,0.5-7,1.4c-2.6,0.8-4.9,2.1-6.3,3.3s-2.1,2-2.2,2
							c0,0,0.1-0.3,0.4-0.7c0.3-0.4,0.8-1,1.5-1.6c1.4-1.2,3.7-2.6,6.4-3.5c2.7-0.8,5.3-1.1,7.1-1.2
							C668.1,365.3,669.2,365.3,669.2,365.4z"/>
					</g>
				</g>
			</g>
			<g>
				<g>
					<g>
						<path class="st5" d="M651.6,371.4c-0.2-0.1,1.2-2.1,2.2-4.9c1-2.7,1.2-5.2,1.4-5.2c0.1,0,0.1,0.6,0,1.6
							c-0.1,1-0.3,2.3-0.9,3.8c-0.5,1.4-1.2,2.6-1.7,3.5C652,371,651.6,371.4,651.6,371.4z"/>
					</g>
				</g>
			</g>
			<g>
				<g>
					<g>
						<path class="st5" d="M677.3,329.2c0,0-0.2,0.1-0.5,0.2c-0.4,0.2-0.8,0.4-1.4,0.6c-0.6,0.3-1.3,0.6-2.1,1s-1.8,0.9-2.8,1.5
							c-0.5,0.3-1,0.6-1.6,0.9c-0.6,0.3-1.1,0.7-1.7,1.1c-1.2,0.7-2.3,1.6-3.7,2.5c-2.5,1.9-5.1,4.2-7.6,6.7
							c-2.5,2.6-4.7,5.3-6.5,7.8c-0.9,1.3-1.7,2.5-2.4,3.8c-0.3,0.6-0.7,1.2-1,1.7c-0.3,0.6-0.6,1.1-0.8,1.6c-0.6,1-1,2-1.4,2.8
							s-0.7,1.6-0.9,2.2c-0.2,0.6-0.4,1-0.6,1.4c-0.1,0.3-0.2,0.5-0.2,0.5s0-0.2,0.1-0.5c0.1-0.4,0.3-0.8,0.5-1.4s0.5-1.4,0.9-2.2
							c0.4-0.9,0.8-1.8,1.3-2.9c0.3-0.5,0.5-1.1,0.8-1.6c0.3-0.6,0.6-1.1,1-1.7c0.7-1.2,1.5-2.4,2.3-3.8c1.8-2.5,4-5.3,6.5-7.9
							c2.5-2.6,5.2-4.9,7.7-6.7c1.3-0.9,2.5-1.8,3.8-2.5c0.6-0.4,1.1-0.7,1.7-1c0.6-0.3,1.1-0.6,1.6-0.9c1-0.6,2-1,2.8-1.4
							s1.6-0.7,2.2-0.9c0.6-0.2,1-0.4,1.4-0.5C677.1,329.4,677.3,329.2,677.3,329.2z"/>
					</g>
				</g>
			</g>
			<g>
				<g>
					<g>
						<path class="st5" d="M656.2,343.5c0,0,0.2-0.8,1.1-1.7c0.9-0.9,2.6-1.7,4.7-1.8c2-0.1,3.8,0.5,5,0.9c1.2,0.5,1.9,0.8,1.8,0.9
							c0,0.1-0.8-0.2-1.9-0.6c-1.2-0.4-2.9-0.8-4.8-0.8c-1.9,0.1-3.6,0.8-4.5,1.5C656.6,342.8,656.2,343.5,656.2,343.5z"/>
					</g>
				</g>
			</g>
			<g>
				<g>
					<g>
						<path class="st5" d="M653.1,346.7c-0.1-0.1,1-1.8,1.3-4.4c0.3-2.5-0.4-4.5-0.3-4.6c0.1,0,0.3,0.4,0.5,1.2
							c0.2,0.8,0.4,2,0.2,3.4s-0.6,2.4-1,3.1C653.5,346.3,653.1,346.7,653.1,346.7z"/>
					</g>
				</g>
			</g>
		</g>
		<g>
			<g>
				<path class="st10" d="M618.5,390.6c0.7,12.9,4.7,26.1,10.7,39.4h26.1c5.7-13.2,9.3-26.3,10-39.4H618.5z"/>
			</g>
		</g>
		<g>
			<g>
				<g>
					<path class="st11" d="M661,411.5c0,0.1-8.6,0.2-19.2,0.2s-19.2-0.1-19.2-0.2c0-0.1,8.6-0.2,19.2-0.2
						C652.4,411.3,661,411.4,661,411.5z"/>
				</g>
			</g>
		</g>
		<g>
			<g>
				<g>
					<path class="st11" d="M660.5,416.3c0,0.1-8,0.2-18,0.2c-10,0-18-0.1-18-0.2c0-0.1,8-0.2,18-0.2
						C652.3,416,660.5,416.1,660.5,416.3z"/>
				</g>
			</g>
		</g>
	</g>
	<g>
		<g>
			
				<rect x="183.4" y="-3.3" transform="matrix(0.2251 -0.9743 0.9743 0.2251 132.6342 216.3216)" class="st8" width="37.9" height="56.2"/>
		</g>
		<g>
			<g>
				<g>
					<path class="st7" d="M234,13.2c0,0-0.2,0.1-0.6,0.4c-0.5,0.2-1.1,0.6-1.8,1c-1.6,0.8-4,2-6.8,3.6c-5.8,2.9-13.7,7-22.6,11.5
						l-0.2,0.1l-0.1-0.2c-0.1-0.1-0.2-0.3-0.3-0.4c-6.2-7.8-11.8-14.9-15.9-20.1c-2-2.5-3.6-4.7-4.8-6.1c-0.5-0.7-0.9-1.2-1.3-1.7
						c-0.3-0.4-0.4-0.6-0.4-0.6s0.2,0.2,0.5,0.5c0.3,0.4,0.8,0.9,1.3,1.6c1.2,1.4,2.8,3.6,4.9,6c4.2,5.2,9.8,12.3,16,20
						c0.1,0.1,0.2,0.3,0.3,0.4l-0.3-0.1c8.8-4.5,16.8-8.4,22.7-11.4c2.8-1.4,5.2-2.5,6.9-3.4c0.8-0.4,1.4-0.7,1.8-0.9
						C233.8,13.3,234,13.2,234,13.2z"/>
				</g>
			</g>
		</g>
		<g>
			<g>
				<path class="st7" d="M170.8,37.5c-0.1-0.1,5.2-4.3,11.8-9.1c6.6-5,12-8.8,12.1-8.7c0.1,0.1-5.2,4.3-11.8,9.1
					C176.3,33.6,170.8,37.6,170.8,37.5z"/>
			</g>
		</g>
		<g>
			<g>
				<path class="st7" d="M213,23.2c0.1-0.1,3,5.9,6.5,13.3c3.5,7.4,6.2,13.5,6,13.5c-0.1,0.1-3-5.9-6.5-13.3
					C215.5,29.3,212.9,23.2,213,23.2z"/>
			</g>
		</g>
	</g>
	<g>
		<g>
			
				<rect x="490.3" y="21.7" transform="matrix(0.9188 -0.3946 0.3946 0.9188 27.1923 205.0268)" class="st8" width="43.6" height="29.4"/>
		</g>
		<g>
			<g>
				<g>
					<path class="st7" d="M526.6,14.6c0,0-0.1,0.2-0.2,0.5c-0.2,0.4-0.4,0.8-0.7,1.4c-0.6,1.3-1.5,3.1-2.6,5.3
						c-2.2,4.5-5.4,10.7-8.8,17.6l-0.1,0.1h-0.2c-0.1,0-0.2-0.1-0.4-0.1c-7.4-2-14.2-4-19.2-5.3c-2.4-0.7-4.4-1.2-5.8-1.6
						c-0.6-0.2-1.2-0.3-1.5-0.5c-0.4-0.1-0.5-0.2-0.5-0.2s0.2,0,0.6,0.1c0.4,0.1,0.9,0.2,1.6,0.4c1.4,0.4,3.4,0.9,5.8,1.5
						c5,1.3,11.7,3.1,19.2,5.2c0.1,0,0.3,0.1,0.4,0.1l-0.2,0.1c3.5-6.8,6.6-13,8.9-17.5c1.1-2.2,2-4,2.7-5.3c0.3-0.6,0.6-1,0.7-1.4
						C526.4,14.8,526.6,14.6,526.6,14.6z"/>
				</g>
			</g>
		</g>
		<g>
			<g>
				<path class="st7" d="M498.1,58.8c-0.1,0,1.3-5,3.2-11.2c1.8-6.1,3.5-11.1,3.6-11.1s-1.3,5-3.2,11.2
					C499.8,53.8,498.2,58.8,498.1,58.8z"/>
			</g>
		</g>
		<g>
			<g>
				<path class="st7" d="M518,30.6c0.1-0.1,4.6,2.3,10.2,5.4c5.6,3,10.1,5.6,10,5.7c-0.1,0.1-4.6-2.3-10.2-5.4S517.9,30.7,518,30.6z
					"/>
			</g>
		</g>
	</g>
	<g>
		<g>
			<g>
				<g>
					<g>
						<g>
							<g>
								<g>
									<polygon class="st9" points="242.9,208.8 440.8,207 446.5,341.4 241.7,339.9 									"/>
								</g>
							</g>
						</g>
						<g>
							<g>
								<g>
									<path class="st10" d="M242.9,208.8l93.5-75.9c3.9-3.3,9.6-3.3,13.6,0l90.7,74"/>
								</g>
							</g>
						</g>
						<g>
							<g>
								<g>
									<g>
										<path class="st5" d="M241.7,339.9c-0.3-0.3,15.6-17.5,35.3-38.6c19.8-21.1,35.9-38.1,36.2-37.8s-15.6,17.5-35.3,38.6
											C258.2,323.3,241.9,340.2,241.7,339.9z"/>
									</g>
								</g>
							</g>
						</g>
						<g>
							<g>
								<g>
									<g>
										<path class="st5" d="M446.5,341.4c-0.3,0.3-15.7-16.7-34.6-37.7s-33.9-38.4-33.6-38.5c0.3-0.3,15.7,16.7,34.6,37.7
											S446.8,341.2,446.5,341.4z"/>
									</g>
								</g>
							</g>
						</g>
						<g class="st12">
							<g>
								<g>
									<polyline points="440.8,207 341.6,286.5 242.9,208.8 									"/>
								</g>
							</g>
						</g>
					</g>
					<g>
						<g>
							<g>
								<g>
									<polygon class="st11" points="252.9,216.2 252.5,154.5 425.7,152 427.8,217 341.6,285.4 									"/>
								</g>
								<g>
									<g>
										<path class="st5" d="M252.9,216.2c0,0,0.5,0.4,1.6,1.2c1.1,0.8,2.7,2,4.7,3.7c4.1,3.3,10.2,7.9,17.9,14
											c15.5,12.1,37.6,29.3,64.6,50.3h-0.4c24.8-19.8,54.3-43.2,86.1-68.6l-0.1,0.3c-0.4-12.3-0.8-25.4-1.2-38.6
											c-0.3-8.9-0.5-17.8-0.8-26.3l0.4,0.4c-69.9,0.9-131.3,1.8-173.2,2.3l0.3-0.3c0.1,19.4,0.1,34.8,0.3,45.4
											c0,5.3,0,9.4,0,12.1c0,1.4,0,2.4,0,3.1C252.9,215.8,252.9,216.2,252.9,216.2s0-0.4,0-1.1s0-1.8,0-3.1
											c0-2.7-0.1-6.8-0.1-12.1c-0.1-10.6-0.3-26-0.4-45.6v-0.3h0.3c41.8-0.7,103.4-1.5,173.2-2.6h0.4v0.4
											c0.3,8.7,0.5,17.5,0.8,26.3c0.4,13.3,0.8,26.3,1.2,38.6v0.1l-0.1,0.1c-31.9,25.4-61.4,48.7-86.3,68.5l-0.1,0.1l-0.1-0.1
											c-26.9-21.1-49-38.5-64.4-50.6c-7.7-6.1-13.7-10.8-17.8-14c-2-1.6-3.5-2.8-4.6-3.7C253.5,216.6,252.9,216.2,252.9,216.2z"
											/>
									</g>
								</g>
							</g>
						</g>
					</g>
				</g>
			</g>
		</g>
		<g>
			<g>
				<path class="st5" d="M398.3,183.2c0,0.1-26.4,0.5-59.1,0.8c-32.7,0.3-59.1,0.3-59.1,0.1c0-0.1,26.4-0.5,59.1-0.8
					C371.9,183.1,398.3,183,398.3,183.2z"/>
			</g>
		</g>
		<g>
			<g>
				<path class="st5" d="M398.5,200.6c0,0.1-26.4,0.5-59.1,0.8c-32.7,0.3-59.1,0.3-59.1,0.1c0-0.1,26.4-0.5,59.1-0.8
					C371.9,200.4,398.5,200.4,398.5,200.6z"/>
			</g>
		</g>
		<g>
			<g>
				<path class="st5" d="M398.5,220.8c0,0.1-26.4,0.5-59.1,0.8s-59.1,0.3-59.1,0.1s26.4-0.5,59.1-0.8
					C372,220.5,398.5,220.5,398.5,220.8z"/>
			</g>
		</g>
		<g>
			<g>
				<path class="st5" d="M398.5,240.8c0,0.1-25.2,0.5-56.4,0.8c-31.2,0.3-56.4,0.3-56.4,0.1c0-0.1,25.2-0.5,56.4-0.8
					C373.2,240.7,398.5,240.6,398.5,240.8z"/>
			</g>
		</g>
		<g>
			<g>
				<path class="st5" d="M376.4,258.5c0,0-0.3,0-0.7,0.1c-0.5,0-1.2,0-2,0.1c-1.9,0-4.3,0.1-7.3,0.1c-6.2,0.1-14.8,0.3-24.1,0.4
					c-9.5,0.1-17.9,0.3-24.1,0.3c-3,0-5.4,0-7.3,0c-0.8,0-1.5,0-2,0c-0.4,0-0.7,0-0.7,0s0.3,0,0.7-0.1c0.5,0,1.2,0,2-0.1
					c1.9,0,4.3-0.1,7.3-0.1c6.2-0.1,14.8-0.3,24.1-0.4c9.5-0.1,17.9-0.3,24.1-0.3c3,0,5.4,0,7.3,0c0.8,0,1.5,0,2,0
					C376.1,258.5,376.4,258.5,376.4,258.5z"/>
			</g>
		</g>
		<g>
			<g>
				<path class="st5" d="M354.1,275.5c0,0.1-5.7,0.4-12.6,0.4c-6.9,0-12.6-0.1-12.6-0.3c0-0.1,5.7-0.4,12.6-0.4
					C348.4,275.1,354.1,275.3,354.1,275.5z"/>
			</g>
		</g>
	</g>
	<g>
		<g>
			<g>
				<path class="st5" d="M532.6,190.2c-0.1,0.1-1.2-0.2-2.4-0.8c-1.3-0.6-2.3-1.2-2.2-1.3c0.1-0.1,1.2,0.2,2.4,0.8
					C531.7,189.5,532.7,190.1,532.6,190.2z"/>
			</g>
		</g>
		<g>
			<g>
				<path class="st5" d="M542.5,193.7c0,0.1-1.2-0.1-2.5-0.5c-1.4-0.4-2.4-0.9-2.4-1c0-0.1,1.2,0.1,2.5,0.5
					C541.5,193.1,542.6,193.6,542.5,193.7z"/>
			</g>
		</g>
		<g>
			<g>
				<path class="st5" d="M552.9,195.3c0,0.1-1.2,0.1-2.6,0c-1.4-0.2-2.6-0.4-2.5-0.5c0-0.1,1.2-0.1,2.6,0
					C551.7,194.9,552.9,195.2,552.9,195.3z"/>
			</g>
		</g>
		<g>
			<g>
				<path class="st5" d="M563.2,195c0,0.1-1.1,0.4-2.5,0.5c-1.4,0.1-2.6,0.1-2.6-0.1c0-0.1,1.1-0.4,2.5-0.5
					C562.1,194.8,563.2,194.9,563.2,195z"/>
			</g>
		</g>
		<g>
			<g>
				<path class="st5" d="M573.5,193.1c0,0.1-1.1,0.5-2.4,0.9c-1.4,0.3-2.6,0.4-2.6,0.3s1.1-0.5,2.5-0.8
					C572.3,193.1,573.5,192.9,573.5,193.1z"/>
			</g>
		</g>
		<g>
			<g>
				<path class="st5" d="M583.3,189.2c0.1,0.1-0.9,0.7-2.2,1.3c-1.3,0.6-2.4,1-2.4,0.8c-0.1-0.1,0.9-0.7,2.2-1.3
					C582,189.5,583.2,189.1,583.3,189.2z"/>
			</g>
		</g>
		<g>
			<g>
				<path class="st5" d="M591.9,183.4c0.1,0.1-0.7,1-1.8,1.8c-1.1,0.9-2.2,1.4-2.3,1.3c-0.1-0.1,0.8-0.9,1.9-1.7
					C590.8,184,591.8,183.3,591.9,183.4z"/>
			</g>
		</g>
		<g>
			<g>
				<path class="st5" d="M599,175.8c0.1,0.1-0.5,1.1-1.4,2.2c-0.9,1.1-1.8,1.9-1.9,1.8c-0.1-0.1,0.6-1,1.5-2.1
					C598.1,176.6,598.9,175.7,599,175.8z"/>
			</g>
		</g>
		<g>
			<g>
				<path class="st5" d="M603.9,166.6c0.1,0-0.1,1.2-0.7,2.5c-0.6,1.3-1.2,2.3-1.4,2.2c-0.1-0.1,0.3-1.1,0.9-2.4
					C603.3,167.6,603.8,166.5,603.9,166.6z"/>
			</g>
		</g>
		<g>
			<g>
				<path class="st5" d="M605.8,156.4c0.1,0,0.3,1.2,0.1,2.6c-0.1,1.4-0.5,2.5-0.6,2.5c-0.1,0,0-1.2,0.1-2.6
					C605.5,157.5,605.6,156.4,605.8,156.4z"/>
			</g>
		</g>
		<g>
			<g>
				<path class="st5" d="M604.3,146.1c0.1,0,0.6,1,0.9,2.4c0.3,1.4,0.4,2.6,0.2,2.6c-0.1,0-0.4-1.1-0.7-2.5
					C604.4,147.2,604.2,146.1,604.3,146.1z"/>
			</g>
		</g>
		<g>
			<g>
				<path class="st5" d="M599.7,136.7c0.1-0.1,0.9,0.8,1.6,2c0.7,1.2,1.1,2.3,1,2.4c-0.1,0.1-0.7-0.9-1.4-2.1
					C600.2,137.8,599.6,136.8,599.7,136.7z"/>
			</g>
		</g>
		<g>
			<g>
				<path class="st5" d="M592.5,129.3c0.1-0.1,1.1,0.4,2.2,1.4c1.1,0.9,1.8,1.9,1.7,2c-0.1,0.1-1-0.6-2-1.6
					C593.3,130.2,592.4,129.4,592.5,129.3z"/>
			</g>
		</g>
		<g>
			<g>
				<path class="st5" d="M583.1,125c0-0.1,1.2,0,2.6,0.4c1.4,0.4,2.4,1.1,2.3,1.2c-0.1,0.1-1.1-0.2-2.5-0.7
					C584.2,125.5,583.1,125.2,583.1,125z"/>
			</g>
		</g>
		<g>
			<g>
				<path class="st5" d="M572.7,125.2c0-0.1,1.1-0.6,2.5-0.7c1.4-0.2,2.6-0.1,2.6,0.1c0,0.2-1.1,0.3-2.5,0.5
					C573.9,125.2,572.7,125.4,572.7,125.2z"/>
			</g>
		</g>
		<g>
			<g>
				<path class="st5" d="M563.6,130.3c-0.1-0.1,0.6-1.1,1.8-1.9c1.2-0.9,2.3-1.3,2.3-1.2c0.1,0.1-0.9,0.8-2,1.6
					C564.7,129.6,563.7,130.4,563.6,130.3z"/>
			</g>
		</g>
		<g>
			<g>
				<path class="st5" d="M559.6,139.6c-0.1,0-0.2-1.2,0.1-2.6c0.3-1.4,1-2.4,1.1-2.4c0.1,0.1-0.2,1.1-0.6,2.5
					C559.9,138.5,559.7,139.6,559.6,139.6z"/>
			</g>
		</g>
		<g>
			<g>
				<path class="st5" d="M561.6,149.8c-0.1,0.1-0.8-0.9-1.3-2.3c-0.5-1.4-0.6-2.5-0.4-2.6c0.1,0,0.5,1.1,0.9,2.4
					C561.3,148.6,561.7,149.7,561.6,149.8z"/>
			</g>
		</g>
		<g>
			<g>
				<path class="st5" d="M568.4,157.5c-0.1,0.1-1.1-0.4-2.2-1.4c-1.1-1-1.8-1.9-1.6-2c0.1-0.1,0.9,0.7,2,1.6
					C567.6,156.6,568.5,157.4,568.4,157.5z"/>
			</g>
		</g>
		<g>
			<g>
				<path class="st5" d="M577.9,161.8c0,0.1-1.2,0-2.6-0.5c-1.4-0.5-2.4-1.1-2.3-1.2s1.1,0.2,2.5,0.7
					C576.9,161.3,578,161.6,577.9,161.8z"/>
			</g>
		</g>
		<g>
			<g>
				<path class="st5" d="M588.2,162.8c0,0.1-1.1,0.3-2.6,0.3c-1.4,0-2.6-0.3-2.6-0.4s1.2-0.2,2.6-0.1
					C587.1,162.6,588.2,162.6,588.2,162.8z"/>
			</g>
		</g>
		<g>
			<g>
				<path class="st5" d="M598.5,160.9c0,0.1-1,0.6-2.4,1s-2.5,0.4-2.6,0.3c0-0.1,1.1-0.5,2.4-0.8C597.3,161,598.5,160.8,598.5,160.9
					z"/>
			</g>
		</g>
		<g>
			<g>
				<path class="st5" d="M607.9,156.5c0.1,0.1-0.9,0.8-2.1,1.4c-1.3,0.7-2.3,1.1-2.4,1c-0.1-0.1,0.9-0.8,2.1-1.4
					C606.8,156.8,607.8,156.4,607.9,156.5z"/>
			</g>
		</g>
		<g>
			<g>
				<path class="st5" d="M616.4,150.3c0.1,0.1-0.7,0.9-1.8,1.8c-1.1,0.9-2.1,1.5-2.2,1.4c-0.1-0.1,0.7-0.9,1.8-1.8
					C615.3,150.8,616.3,150.2,616.4,150.3z"/>
			</g>
		</g>
		<g>
			<g>
				<path class="st5" d="M623.5,142.7c0.1,0.1-0.5,1-1.5,2.1c-0.9,1.1-1.8,1.9-1.9,1.8c-0.1-0.1,0.5-1.1,1.5-2.1
					C622.5,143.4,623.4,142.6,623.5,142.7z"/>
			</g>
		</g>
		<g>
			<g>
				<path class="st5" d="M629.2,133.9c0.1,0.1-0.4,1.1-1.1,2.3c-0.7,1.2-1.4,2.1-1.6,2.1c-0.1-0.1,0.4-1.1,1.1-2.3
					C628.4,134.9,629.1,133.8,629.2,133.9z"/>
			</g>
		</g>
		<g>
			<g>
				<path class="st5" d="M633.5,124.4c0.1,0-0.2,1.2-0.7,2.5c-0.5,1.3-1.1,2.3-1.2,2.3c-0.1-0.1,0.2-1.2,0.7-2.5
					C632.7,125.4,633.4,124.4,633.5,124.4z"/>
			</g>
		</g>
		<g>
			<g>
				<path class="st5" d="M636.4,114.3c0.1,0,0,1.2-0.4,2.6s-0.8,2.5-0.9,2.4c-0.1,0,0-1.2,0.4-2.6
					C635.8,115.5,636.2,114.3,636.4,114.3z"/>
			</g>
		</g>
		<g>
			<g>
				<path class="st5" d="M638.2,104.1c0.1,0,0.1,1.2-0.1,2.6c-0.2,1.4-0.5,2.5-0.7,2.5c-0.1,0-0.1-1.2,0.1-2.6
					C637.7,105.2,638,104.1,638.2,104.1z"/>
			</g>
		</g>
		<g>
			<g>
				<path class="st5" d="M639.1,93.7c0.1,0,0.2,1.2,0.1,2.6c-0.1,1.4-0.3,2.6-0.5,2.5c-0.1,0-0.2-1.2-0.1-2.6
					C638.8,94.8,639,93.7,639.1,93.7z"/>
			</g>
		</g>
		<g>
			<g>
				<path class="st5" d="M639.4,83.3c0.1,0,0.2,1.2,0.2,2.6s-0.2,2.6-0.3,2.6c-0.1,0-0.2-1.2-0.2-2.6
					C639.2,84.5,639.3,83.3,639.4,83.3z"/>
			</g>
		</g>
		<g>
			<g>
				<path class="st5" d="M639.4,72.8c0.1,0,0.3,1.1,0.3,2.6c0,1.4-0.1,2.6-0.2,2.6s-0.3-1.1-0.3-2.6C639.1,74,639.2,72.8,639.4,72.8
					z"/>
			</g>
		</g>
		<g>
			<g>
				<path class="st5" d="M639.2,66.4c0.1,0,0.3,0.3,0.3,0.6c0,0.3-0.1,0.6-0.3,0.6c-0.1,0-0.3-0.3-0.3-0.6
					C639,66.7,639.1,66.4,639.2,66.4z"/>
			</g>
		</g>
	</g>
	<g>
		<g>
			
				<rect x="593.6" y="39.2" transform="matrix(0.9942 -0.1079 0.1079 0.9942 -3.149 68.2913)" class="st9" width="71.4" height="48.1"/>
			<path class="st5" d="M596.3,91L596.3,91l-5.2-47.8l0,0l71-7.7l0,0l5.2,47.8l0,0L596.3,91z M591.2,43.1l5.2,47.8l70.9-7.7
				l-5.2-47.8L591.2,43.1z"/>
		</g>
		<g>
			<g>
				<g>
					<path class="st5" d="M662.4,35.9c0,0-0.2,0.3-0.6,0.7c-0.4,0.5-1,1.1-1.8,1.9c-1.6,1.7-3.9,4.2-6.7,7.1
						c-5.7,6-13.5,14.2-22.3,23.3l-0.2,0.2l-0.2-0.1c-0.2-0.1-0.4-0.2-0.5-0.3c-10.7-6.8-20.4-13-27.5-17.6
						c-3.5-2.2-6.3-4.1-8.3-5.4c-0.9-0.6-1.6-1.1-2.2-1.5c-0.5-0.3-0.8-0.5-0.7-0.5c0,0,0.3,0.1,0.8,0.4c0.6,0.3,1.3,0.8,2.3,1.4
						c2,1.2,4.9,3,8.4,5.2c7.1,4.5,16.9,10.7,27.6,17.4c0.2,0.1,0.4,0.2,0.5,0.3h-0.4c8.7-9,16.7-17.2,22.4-23.2
						c2.8-2.8,5.2-5.3,6.8-6.9c0.8-0.8,1.4-1.4,1.8-1.8C662.2,36.1,662.4,35.9,662.4,35.9z"/>
				</g>
			</g>
		</g>
		<g>
			<g>
				<path class="st5" d="M596.6,91.5c-0.1-0.1,4.5-7.2,10.4-15.9c5.9-8.7,10.8-15.6,10.9-15.5c0.1,0.1-4.5,7.2-10.4,15.9
					C601.6,84.7,596.8,91.6,596.6,91.5z"/>
			</g>
		</g>
		<g>
			<g>
				<path class="st5" d="M641.4,56.9c0.1-0.1,6.1,5.8,13.4,13.3c7.2,7.4,13,13.6,12.9,13.7c-0.1,0.1-6.1-5.8-13.4-13.3
					C647.1,63.2,641.3,57,641.4,56.9z"/>
			</g>
		</g>
	</g>
	<g>
		<g>
			<g>
				<path class="st5" d="M337.8,180.5c0.1,0,0.4,0.5,0.5,1.2s0.1,1.3,0,1.3s-0.4-0.5-0.5-1.2C337.6,181.2,337.6,180.6,337.8,180.5z"
					/>
			</g>
		</g>
		<g>
			<g>
				<path class="st5" d="M336.1,170.3c0.1,0,0.4,1.1,0.7,2.5c0.2,1.4,0.3,2.5,0.1,2.6c-0.1,0-0.4-1.1-0.7-2.5
					C336,171.5,336,170.3,336.1,170.3z"/>
			</g>
		</g>
		<g>
			<g>
				<path class="st5" d="M334.7,160c0.1,0,0.4,1.1,0.6,2.5s0.2,2.5,0.1,2.6c-0.1,0-0.4-1.1-0.6-2.5
					C334.5,161.3,334.5,160.1,334.7,160z"/>
			</g>
		</g>
		<g>
			<g>
				<path class="st5" d="M333.5,149.8c0.1,0,0.4,1.1,0.5,2.5s0.1,2.5,0,2.6c-0.1,0-0.4-1.1-0.5-2.5
					C333.4,151,333.4,149.9,333.5,149.8z"/>
			</g>
		</g>
		<g>
			<g>
				<path class="st5" d="M332.8,139.5c0.1,0,0.3,1.1,0.4,2.5s0,2.5-0.1,2.6c-0.1,0-0.3-1.1-0.4-2.5S332.6,139.5,332.8,139.5z"/>
			</g>
		</g>
		<g>
			<g>
				<path class="st5" d="M332.7,129.2c0.1,0,0.3,1.1,0.3,2.5s-0.1,2.5-0.3,2.5c-0.1,0-0.3-1.1-0.3-2.5
					C332.4,130.4,332.5,129.2,332.7,129.2z"/>
			</g>
		</g>
		<g>
			<g>
				<path class="st5" d="M333.3,118.9c0.1,0,0.2,1.2,0.1,2.6c-0.1,1.4-0.3,2.5-0.5,2.5c-0.1,0-0.2-1.2-0.1-2.6
					C333,120,333.2,118.9,333.3,118.9z"/>
			</g>
		</g>
		<g>
			<g>
				<path class="st5" d="M334.9,108.8c0.1,0,0.1,1.2-0.2,2.5c-0.2,1.4-0.6,2.5-0.7,2.5s-0.1-1.2,0.2-2.6
					C334.4,109.8,334.7,108.7,334.9,108.8z"/>
			</g>
		</g>
		<g>
			<g>
				<path class="st5" d="M337.4,98.7c0.1,0-0.1,1.2-0.5,2.5s-0.8,2.4-1,2.4c-0.1,0,0.1-1.2,0.5-2.5
					C336.9,99.7,337.3,98.7,337.4,98.7z"/>
			</g>
		</g>
		<g>
			<g>
				<path class="st5" d="M341.3,89.2c0.1,0.1-0.2,1.2-0.8,2.4c-0.6,1.3-1.1,2.3-1.3,2.2c-0.1-0.1,0.2-1.1,0.8-2.4
					C340.6,90.1,341.2,89.1,341.3,89.2z"/>
			</g>
		</g>
		<g>
			<g>
				<path class="st5" d="M346.4,80.1c0.1,0.1-0.4,1.1-1.1,2.3s-1.4,2.1-1.5,2s0.4-1.1,1.1-2.3C345.6,81,346.3,80.1,346.4,80.1z"/>
			</g>
		</g>
		<g>
			<g>
				<path class="st5" d="M352.6,71.9c0.1,0.1-0.5,1.1-1.4,2.1c-0.9,1.1-1.7,1.9-1.8,1.8c-0.1-0.1,0.5-1,1.4-2.1
					C351.7,72.6,352.5,71.8,352.6,71.9z"/>
			</g>
		</g>
		<g>
			<g>
				<path class="st5" d="M359.9,64.7c0.1,0.1-0.7,1-1.7,1.9s-2,1.6-2.1,1.5s0.7-1,1.7-1.9C358.9,65.2,359.8,64.5,359.9,64.7z"/>
			</g>
		</g>
		<g>
			<g>
				<path class="st5" d="M368.3,58.7c0.1,0.1-0.8,0.8-2,1.6c-1.2,0.8-2.2,1.3-2.3,1.1c-0.1-0.1,0.8-0.8,2-1.6
					C367.2,59.1,368.3,58.6,368.3,58.7z"/>
			</g>
		</g>
		<g>
			<g>
				<path class="st5" d="M377.8,54.5c0,0.1-1,0.7-2.3,1.2c-1.3,0.5-2.4,0.8-2.5,0.7c-0.1-0.1,1-0.7,2.3-1.2
					C376.6,54.6,377.7,54.3,377.8,54.5z"/>
			</g>
		</g>
		<g>
			<g>
				<path class="st5" d="M385.3,52.6c0,0.1-0.5,0.4-1.2,0.5s-1.3,0.1-1.3,0s0.5-0.4,1.2-0.5C384.7,52.5,385.3,52.5,385.3,52.6z"/>
			</g>
		</g>
	</g>
	<g>
		<g>
			
				<rect x="330.3" y="13" transform="matrix(0.3609 -0.9326 0.9326 0.3609 179.5181 365.5977)" class="st9" width="52.3" height="77.6"/>
			<path class="st5" d="M383.4,90.3L383.4,90.3l-72.5-28l0,0l18.9-48.9l0,0l72.5,28l0,0L383.4,90.3z M310.9,62.2l72.5,28l18.9-48.8
				l-72.5-28L310.9,62.2z"/>
		</g>
		<g>
			<g>
				<path class="st5" d="M402.2,42.1c0,0-0.3,0.2-0.9,0.4c-0.7,0.2-1.6,0.6-2.7,1c-2.4,0.8-5.8,2-10,3.6
					c-8.5,2.9-20.2,6.9-33.1,11.4l-0.3,0.1l-0.1-0.2c-0.1-0.2-0.2-0.4-0.3-0.6c-6.9-12-13.2-22.8-17.8-30.7
					c-2.2-3.9-4.1-7.1-5.3-9.3c-0.6-1-1-1.9-1.4-2.5c-0.3-0.6-0.5-0.9-0.4-0.9c0,0,0.2,0.3,0.6,0.8c0.4,0.6,0.9,1.4,1.5,2.5
					c1.3,2.2,3.3,5.4,5.5,9.2c4.7,7.9,11,18.7,18,30.6c0.1,0.2,0.2,0.4,0.3,0.6l-0.4-0.2c12.9-4.4,24.6-8.3,33.1-11.2
					c4.2-1.4,7.6-2.5,10.1-3.3c1.1-0.4,2-0.6,2.7-0.8C401.9,42.1,402.2,42,402.2,42.1z"/>
			</g>
		</g>
		<g>
			<path class="st5" d="M310.8,62.8c-0.1-0.2,7.9-4.8,18-10.3c10-5.5,18.2-9.8,18.3-9.6c0.1,0.2-7.9,4.8-18,10.3
				C319.1,58.8,310.9,63.1,310.8,62.8z"/>
		</g>
		<g>
			<path class="st5" d="M371.4,51.7c0.2-0.1,3,8.6,6.3,19.5c3.3,10.9,5.8,19.6,5.6,19.7c-0.2,0.1-3-8.6-6.3-19.5
				C373.7,60.6,371.3,51.8,371.4,51.7z"/>
		</g>
	</g>
	<g>
		<g>
			<g>
				<path class="st5" d="M123.9,190.6c0-0.1,0.5-0.3,1.2-0.4c0.7-0.1,1.3,0,1.3,0.1c0,0.1-0.5,0.3-1.2,0.4
					C124.5,190.8,123.9,190.7,123.9,190.6z"/>
			</g>
		</g>
		<g>
			<g>
				<path class="st5" d="M113.6,189.4c0-0.1,1.2,0.1,2.6,0.4c1.4,0.3,2.5,0.5,2.5,0.7c0,0.1-1.2,0.1-2.6-0.2
					C114.6,190,113.5,189.6,113.6,189.4z"/>
			</g>
		</g>
		<g>
			<g>
				<path class="st5" d="M104.2,184.8c0.1-0.1,1.1,0.4,2.3,1.2c1.2,0.7,2.2,1.3,2.1,1.5c-0.1,0.1-1.2-0.3-2.4-1
					C105,185.7,104.1,184.9,104.2,184.8z"/>
			</g>
		</g>
		<g>
			<g>
				<path class="st5" d="M96.4,177.8c0.1-0.1,1,0.7,2,1.7c1,1,1.8,1.9,1.7,2c-0.1,0.1-1-0.6-2.1-1.6C97,178.9,96.3,177.9,96.4,177.8
					z"/>
			</g>
		</g>
		<g>
			<g>
				<path class="st5" d="M90.3,169.4c0.1-0.1,0.9,0.8,1.6,2c0.8,1.2,1.3,2.2,1.2,2.3c-0.1,0.1-0.9-0.8-1.6-2
					C90.7,170.5,90.1,169.5,90.3,169.4z"/>
			</g>
		</g>
		<g>
			<g>
				<path class="st5" d="M85.7,159.9c0.1-0.1,0.7,1,1.3,2.3c0.6,1.3,0.9,2.4,0.8,2.5c-0.1,0.1-0.7-0.9-1.3-2.3
					C85.9,161.2,85.6,159.9,85.7,159.9z"/>
			</g>
		</g>
		<g>
			<g>
				<path class="st5" d="M82.8,149.9c0.1,0,0.6,1.1,0.9,2.4c0.4,1.4,0.5,2.5,0.4,2.6c-0.1,0-0.6-1-0.9-2.4
					C82.8,151.1,82.6,150,82.8,149.9z"/>
			</g>
		</g>
		<g>
			<g>
				<path class="st5" d="M81,139.6c0.1,0,0.4,1.1,0.7,2.5c0.2,1.4,0.3,2.6,0.1,2.6c-0.1,0-0.4-1.1-0.7-2.5
					C80.9,140.8,80.8,139.6,81,139.6z"/>
			</g>
		</g>
		<g>
			<g>
				<path class="st5" d="M79.9,129.2c0.1,0,0.4,1.1,0.5,2.5s0.1,2.6-0.1,2.6c-0.1,0-0.4-1.1-0.5-2.5
					C79.7,130.4,79.8,129.2,79.9,129.2z"/>
			</g>
		</g>
		<g>
			<g>
				<path class="st5" d="M79.5,121.3c0.1,0,0.3,0.6,0.3,1.3s-0.1,1.3-0.2,1.3s-0.3-0.6-0.3-1.3C79.2,122,79.3,121.3,79.5,121.3z"/>
			</g>
		</g>
	</g>
	<g>
		<g>
			
				<rect x="33.3" y="60" transform="matrix(0.9989 -4.705700e-02 4.705700e-02 0.9989 -4.1174 3.7124)" class="st9" width="87" height="58.6"/>
			<path class="st5" d="M34.7,120.6L34.7,120.6L32,62l0,0l86.9-4.1l0,0l2.7,58.6l0,0L34.7,120.6z M32,62.1l2.7,58.5l86.8-4.1
				l-2.7-58.5L32,62.1z"/>
		</g>
		<g>
			<g>
				<g>
					<path class="st5" d="M119.2,58.7c0,0-0.2,0.3-0.8,0.8c-0.6,0.6-1.3,1.3-2.3,2.2c-2.1,1.9-5.1,4.8-8.6,8.1
						c-7.4,6.8-17.6,16.3-28.8,26.6l-0.2,0.2l-0.3-0.2c-0.2-0.1-0.4-0.3-0.6-0.5C65,86.8,53.7,78.6,45.4,72.6
						c-4.1-2.9-7.3-5.4-9.7-7.1c-1.1-0.8-1.9-1.5-2.6-1.9c-0.6-0.5-0.9-0.7-0.9-0.7s0.3,0.2,1,0.6c0.7,0.5,1.5,1.1,2.7,1.8
						c2.4,1.7,5.7,4.1,9.9,6.9c8.3,6,19.7,14.1,32.2,23.2c0.2,0.2,0.4,0.3,0.6,0.5h-0.5c11.3-10.4,21.4-19.6,29-26.4
						c3.7-3.4,6.7-6,8.8-7.9c1-0.9,1.8-1.6,2.4-2.1C118.9,59,119.2,58.7,119.2,58.7z"/>
				</g>
			</g>
		</g>
		<g>
			<g>
				<path class="st5" d="M35,121.3c-0.2-0.1,6-8.4,13.7-18.6S63,84.5,63.1,84.7c0.2,0.1-6,8.4-13.7,18.6
					C41.6,113.3,35.2,121.4,35,121.3z"/>
			</g>
		</g>
		<g>
			<g>
				<path class="st5" d="M92,82.6c0.2-0.1,7,7.5,15.2,17.1c8.2,9.5,14.8,17.5,14.6,17.7c-0.2,0.1-7-7.5-15.2-17.1
					C98.4,90.6,91.8,82.7,92,82.6z"/>
			</g>
		</g>
	</g>
</g>
</svg>
