<?xml version="1.0" encoding="utf-8"?>
<!-- Generator: Adobe Illustrator 24.1.0, SVG Export Plug-In . SVG Version: 6.00 Build 0)  -->
<svg version="1.1" id="Layer_1" xmlns="http://www.w3.org/2000/svg" xmlns:xlink="http://www.w3.org/1999/xlink" x="0px" y="0px"
	 viewBox="0 0 700 430" style="enable-background:new 0 0 700 430;" xml:space="preserve">
<style type="text/css">
	.st0{display:none;}
	.st1{display:inline;fill:#E0E0E0;}
	.st2{fill:#FFFFFF;}
	.st3{fill:#E0E0E0;}
	.st4{opacity:0.3;}
	.st5{fill:#EBEBEB;}
	.st6{fill:#F5F5F5;}
	.st7{fill:#4C4C4C;}
	.st8{fill:#191919;}
	.st9{fill:#333333;}
	.st10{fill:#6ABF94;}
	.st11{fill:#FAFAFA;}
	.st12{fill:#455A64;}
	.st13{fill:#263238;}
	.st14{fill:#FF725E;}
	.st15{fill:#569976;}
</style>
<g id="Background_Complete">
</g>
<g id="Background_Simple" class="st0">
	<path class="st1" d="M191.7,414.9h312.8c20.3-11.7,38.8-26.5,55-44.7c50.7-57.3,69.4-154.1,43.3-225.9l-2.4-5.2
		c-19.3-41.6-59.7-70.3-105.9-73.7c-6.5-0.5-13-0.5-19.5,0.1c-43.3,3.6-83.9,30.1-104,68c-11.8,22.3-17.7,48.9-37,65.4
		c-25.1,21.4-62.7,17.5-95.6,12.5c-32.9-5.1-70.6-8.9-95.6,12.7c-15.7,13.5-22.7,34.6-24.1,55C115.1,332.5,146.7,384.7,191.7,414.9z
		"/>
</g>
<g id="Plant">
</g>
<g id="Floor">
</g>
<g id="Envelope_3">
</g>
<g id="Envelope_2">
</g>
<g id="Envelope_1">
</g>
<g id="Character">
</g>
<g id="Device_1_">
	<g>
		<g>
			<g>
				<g>
					<g>
						<rect x="0.2" y="50.2" class="st2" width="151.9" height="102.8"/>
					</g>
				</g>
				<g>
					<g>
						<g>
							<path class="st3" d="M152.1,153c0,0,0-0.6,0-1.8s0-3,0-5.5c0-4.8,0-11.7-0.1-20.6c0-17.9-0.1-43.6-0.1-74.8l0.2,0.2
								c-41.9,0-94.7,0-151.9,0.1l0,0l0.2-0.4c0,36.6,0,71.5,0,102.8l-0.2-0.2c44.7,0.1,82.7,0.1,109.5,0.1c13.4,0,24,0.1,31.3,0.1
								c3.6,0,6.4,0,8.3,0c0.9,0,1.7,0,2.1,0C151.8,153,152.1,153,152.1,153s-0.2,0-0.7,0c-0.5,0-1.2,0-2.1,0c-1.9,0-4.7,0-8.3,0
								c-7.3,0-17.8,0-31.2,0.1c-26.8,0-64.8,0.1-109.6,0.1H0V153c0-31.3,0-66.1,0-102.8v-0.3h0.3l0,0c57.2,0,110.1,0,151.9,0.1h0.2
								v0.2c0,31.3-0.1,57-0.1,74.9c0,8.9,0,15.9-0.1,20.6c0,2.3,0,4.1,0,5.4C152.1,152.4,152.1,153,152.1,153z"/>
						</g>
					</g>
				</g>
			</g>
			<g>
				<g>
					<g>
						<path class="st3" d="M0.2,59.4c0-0.2,34-0.3,75.9-0.3s75.9,0.1,75.9,0.3c0,0.2-34,0.3-75.9,0.3C34.2,59.7,0.2,59.6,0.2,59.4z"
							/>
					</g>
				</g>
			</g>
			<g>
				<g class="st4">
					<g>
						<path class="st3" d="M6.2,54.7c0,0.7-0.5,1.2-1.2,1.2s-1.2-0.5-1.2-1.2c0-0.7,0.5-1.2,1.2-1.2S6.2,54.1,6.2,54.7z"/>
					</g>
				</g>
				<g class="st4">
					<g>
						<path class="st3" d="M10.3,54.7c0,0.7-0.5,1.2-1.2,1.2c-0.7,0-1.2-0.5-1.2-1.2c0-0.7,0.5-1.2,1.2-1.2
							C9.8,53.5,10.3,54.1,10.3,54.7z"/>
					</g>
				</g>
				<g class="st4">
					<g>
						<path class="st3" d="M14.5,54.7c0,0.7-0.5,1.2-1.2,1.2s-1.2-0.5-1.2-1.2c0-0.7,0.5-1.2,1.2-1.2C13.9,53.5,14.5,54.1,14.5,54.7
							z"/>
					</g>
				</g>
			</g>
			<g>
				<g>
					<rect x="13.2" y="70.1" class="st3" width="40.5" height="41"/>
				</g>
			</g>
			<g>
				<g>
					<g>
						<path class="st3" d="M131.3,81.7c0,0.2-15.8,0.3-35.3,0.3s-35.3-0.1-35.3-0.3c0-0.2,15.8-0.3,35.3-0.3
							C115.5,81.4,131.3,81.5,131.3,81.7z"/>
					</g>
				</g>
			</g>
			<g>
				<g>
					<g>
						<path class="st3" d="M131.3,89.3c0,0.2-15.8,0.3-35.3,0.3s-35.3-0.1-35.3-0.3c0-0.2,15.8-0.3,35.3-0.3
							C115.5,89,131.3,89.1,131.3,89.3z"/>
					</g>
				</g>
			</g>
			<g>
				<g>
					<g>
						<path class="st3" d="M131.3,96.9c0,0.2-15.8,0.3-35.3,0.3s-35.3-0.1-35.3-0.3c0-0.2,15.8-0.3,35.3-0.3
							C115.5,96.6,131.3,96.8,131.3,96.9z"/>
					</g>
				</g>
			</g>
			<g>
				<g>
					<g>
						<path class="st3" d="M102.4,104.5c0,0-0.6,0.1-1.6,0.1c-1.2,0-2.7,0.1-4.5,0.1c-3.8,0-9,0.1-14.8,0.1c-5.8,0-11,0-14.8-0.1
							c-1.8,0-3.3-0.1-4.5-0.1c-1.1,0-1.6-0.1-1.6-0.1s0.6-0.1,1.6-0.1c1.2,0,2.7-0.1,4.5-0.1c3.8,0,9-0.1,14.8-0.1
							c5.8,0,11,0,14.8,0.1c1.8,0,3.3,0.1,4.5,0.1C101.8,104.5,102.4,104.5,102.4,104.5z"/>
					</g>
				</g>
			</g>
			<g>
				<g>
					<rect x="15.8" y="124.9" class="st3" width="19" height="19.2"/>
				</g>
			</g>
			<g>
				<g>
					<rect x="50.3" y="124.9" class="st3" width="19" height="19.2"/>
				</g>
			</g>
			<g>
				<g>
					<rect x="84.8" y="124.9" class="st3" width="19" height="19.2"/>
				</g>
			</g>
			<g>
				<g>
					<rect x="119.4" y="124.9" class="st3" width="19" height="19.2"/>
				</g>
			</g>
		</g>
		<g>
			<g>
				<g>
					<g>
						<rect x="174.5" y="0.2" class="st2" width="130.9" height="53.7"/>
					</g>
				</g>
				<g>
					<g>
						<g>
							<path class="st3" d="M305.4,54c0,0,0-0.3,0-0.9c0-0.6,0-1.6,0-2.8c0-2.4,0-6.1,0-10.7c0-9.3,0-22.7-0.1-39.2l0.1,0.1
								c-33.3,0-79.6,0-130.9,0.1l0,0l0.2-0.2c0,18.8,0,37,0,53.7l-0.2-0.2c37.9,0,70.6,0.1,93.8,0.1c11.6,0,20.9,0,27.2,0.1
								c3.2,0,5.6,0,7.3,0c0.8,0,1.5,0,1.9,0C305.2,54,305.4,54,305.4,54s-0.2,0-0.6,0s-1,0-1.9,0c-1.7,0-4.1,0-7.2,0
								c-6.3,0-15.6,0-27.2,0.1c-23.3,0-56,0.1-94,0.1h-0.2V54c0-16.8,0-34.9,0-53.7V0h0.2l0,0c51.2,0,97.6,0,130.9,0.1h0.1v0.1
								c0,16.7-0.1,30-0.1,39.3c0,4.7,0,8.2,0,10.6c0,1.2,0,2.1,0,2.7C305.4,53.7,305.4,54,305.4,54z"/>
						</g>
					</g>
				</g>
			</g>
			<g>
				<g>
					<g>
						<path class="st3" d="M174.7,7.5c0-0.1,29.3-0.2,65.3-0.2c36.1,0,65.3,0.1,65.3,0.2c0,0.1-29.2,0.2-65.3,0.2
							S174.7,7.6,174.7,7.5z"/>
					</g>
				</g>
			</g>
			<g>
				<g class="st4">
					<g>
						<path class="st5" d="M180.1,4.2c0,0.5-0.4,0.9-0.9,0.9c-0.5,0-0.9-0.4-0.9-0.9s0.4-0.9,0.9-0.9C179.7,3.2,180.1,3.7,180.1,4.2
							z"/>
					</g>
				</g>
				<g class="st4">
					<g>
						<path class="st5" d="M183.4,4.2c0,0.5-0.4,0.9-0.9,0.9c-0.5,0-0.9-0.4-0.9-0.9s0.4-0.9,0.9-0.9C183,3.2,183.4,3.7,183.4,4.2z"
							/>
					</g>
				</g>
				<g class="st4">
					<g>
						<ellipse class="st5" cx="185.6" cy="4.2" rx="0.9" ry="0.9"/>
					</g>
				</g>
			</g>
			<g>
				<g>
					<rect x="185.6" y="16.2" class="st3" width="31.6" height="32"/>
				</g>
			</g>
			<g>
				<g>
					<g>
						<g>
							<path class="st3" d="M296.3,24.8c0,0.1-16.3,0.2-36.3,0.2c-20.1,0-36.3-0.1-36.3-0.2s16.3-0.2,36.3-0.2
								C280.1,24.6,296.3,24.7,296.3,24.8z"/>
						</g>
					</g>
				</g>
				<g>
					<g>
						<g>
							<path class="st3" d="M296.3,31.2c0,0.1-16.3,0.2-36.3,0.2c-20.1,0-36.3-0.1-36.3-0.2c0-0.1,16.3-0.2,36.3-0.2
								C280.1,31,296.3,31.1,296.3,31.2z"/>
						</g>
					</g>
				</g>
				<g>
					<g>
						<g>
							<path class="st3" d="M270.5,37.8c0,0-0.2,0-0.5,0c-0.4,0-0.8,0-1.4,0c-1.2,0-2.9,0-5,0.1c-4.3,0-10.1,0-16.5,0.1
								c-6.4,0-12.3,0-16.5-0.1c-2.1,0-3.8,0-5-0.1c-0.6,0-1,0-1.4,0c-0.3,0-0.5,0-0.5,0s0.2,0,0.5,0c0.4,0,0.8,0,1.4,0
								c1.2,0,2.9,0,5-0.1c4.3,0,10.1,0,16.5-0.1c6.4,0,12.3,0,16.5,0.1c2.1,0,3.8,0,5,0.1c0.6,0,1,0,1.4,0
								C270.3,37.7,270.5,37.8,270.5,37.8z"/>
						</g>
					</g>
				</g>
			</g>
		</g>
		<g>
			<g>
				<g>
					<g>
						<path class="st3" d="M658.6,71.9c0,0,0.2-0.3,0.7-0.8c0.6-0.6,1.3-1.3,2.2-2.2c1.8-1.8,4.4-4.3,7.2-7.1l0.1-0.1v0.4
							c-2.9-2.7-5.4-5.2-7.3-7c-0.9-0.8-1.6-1.5-2.2-2.1c-0.5-0.5-0.8-0.8-0.7-0.8c0,0,0.3,0.2,0.9,0.7c0.6,0.5,1.4,1.2,2.3,2
							c1.9,1.7,4.5,4.1,7.4,6.8l0.2,0.2l-0.2,0.2l-0.1,0.1c-2.8,2.7-5.4,5.2-7.3,7c-0.9,0.8-1.6,1.5-2.3,2
							C658.9,71.7,658.6,72,658.6,71.9z"/>
					</g>
				</g>
			</g>
			<g>
				<g>
					<g>
						<path class="st3" d="M636.5,52.3c0,0-0.2,0.3-0.7,0.8c-0.6,0.6-1.3,1.3-2.2,2.2c-1.8,1.8-4.4,4.3-7.2,7.1l-0.1,0.1v-0.4
							c2.9,2.7,5.4,5.2,7.3,7c0.9,0.8,1.6,1.5,2.2,2.1c0.5,0.5,0.8,0.8,0.7,0.8c0,0-0.3-0.2-0.9-0.7c-0.6-0.5-1.4-1.2-2.3-2
							c-1.9-1.7-4.5-4.1-7.4-6.8l-0.2-0.2l0.2-0.2L626,62c2.8-2.7,5.4-5.2,7.3-7c0.9-0.8,1.6-1.5,2.3-2
							C636.2,52.5,636.5,52.2,636.5,52.3z"/>
					</g>
				</g>
			</g>
			<g>
				<g>
					<g>
						<path class="st3" d="M642.2,76.6c-0.1,0,2.2-6.7,5.2-14.8s5.5-14.6,5.6-14.6s-2.2,6.7-5.2,14.8S642.3,76.7,642.2,76.6z"/>
					</g>
				</g>
			</g>
			<g>
				<g>
					<g>
						<path class="st3" d="M683.7,90.7c0,0,0-0.4,0-1.1c0-0.7,0-1.8,0-3.1c0-2.8,0-6.9-0.1-12c0-10.3-0.1-25.1-0.1-42.9l0.2,0.2
							c-20.6,0-45.3,0-71.9,0l0,0l0.2-0.3c0,21.4,0,41.6,0,59.2l-0.2-0.2c21.3,0,39.3,0.1,51.9,0.1c6.3,0,11.3,0,14.7,0.1
							c1.7,0,3,0,3.9,0c0.4,0,0.8,0,1,0C683.6,90.7,683.7,90.7,683.7,90.7s-0.1,0-0.3,0c-0.2,0-0.6,0-1,0c-0.9,0-2.2,0-3.9,0
							c-3.4,0-8.4,0-14.7,0.1c-12.7,0-30.6,0.1-52,0.1h-0.2v-0.2c0-17.6,0-37.8,0-59.2v-0.3h0.2l0,0c26.6,0,51.3,0,71.9,0h0.2v0.2
							c0,17.9-0.1,32.7-0.1,43.1c0,5.2,0,9.2-0.1,11.9c0,1.3,0,2.4,0,3.1C683.7,90.3,683.7,90.7,683.7,90.7z"/>
					</g>
				</g>
			</g>
			<g>
				<g>
					<g>
						<path class="st3" d="M684.3,40.2c0,0.1-16.2,0.3-36.2,0.3c-20,0-36.2-0.1-36.2-0.3c0-0.1,16.2-0.3,36.2-0.3
							C668,40,684.3,40.1,684.3,40.2z"/>
					</g>
				</g>
			</g>
			<g>
				<g>
					<g>
						<path class="st3" d="M617.7,35.9c0,0.5-0.4,1-1,1c-0.5,0-1-0.4-1-1c0-0.5,0.4-1,1-1C617.3,35,617.7,35.4,617.7,35.9z"/>
					</g>
				</g>
				<g>
					<g>
						<path class="st3" d="M621.2,35.9c0,0.5-0.4,1-1,1c-0.5,0-1-0.4-1-1c0-0.5,0.4-1,1-1C620.8,35,621.2,35.4,621.2,35.9z"/>
					</g>
				</g>
				<g>
					<g>
						<path class="st3" d="M624.8,35.9c0,0.5-0.4,1-1,1c-0.5,0-1-0.4-1-1c0-0.5,0.4-1,1-1C624.3,35,624.8,35.4,624.8,35.9z"/>
					</g>
				</g>
			</g>
		</g>
		<g>
			<g>
				<g>
					<g>
						<path class="st5" d="M667.1,350.9c4.2-2.1,9-2.4,13.7-1.7c2.5,0.4,5.1,1.1,6.7,3c1.7,1.9,2,5.2,0.1,6.8
							c-1.2,1-2.8,1.1-4.3,1.1c-3.6,0-7.6-0.7-10.5,1.5c-1.6,1.2-2.7,3.3-4.7,3.9c-1.9,0.6-4.1-0.5-5.1-2.3c-1-1.7-1.1-3.9-0.6-6
							C662.5,357.5,663,353.1,667.1,350.9z"/>
					</g>
				</g>
				<g>
					<g>
						<path class="st5" d="M657.6,332.4c2.5,3.6,7.5,2.4,9.8,0.2c2.3-2.2,3.3-5.5,4.1-8.6c2-7.1,4-14.5,2.5-21.6
							c-0.4-2.1-1.2-4.2-2.7-5.9c-1.5-1.6-3.8-2.5-5.9-2c-2.5,0.7-4,3.1-5.2,5.5c-3.3,6.9-5,14.6-5.1,22.1
							C655.2,325.7,655.6,329.5,657.6,332.4"/>
					</g>
				</g>
				<g>
					<g>
						<path class="st5" d="M650.7,337.7c2.8-3.3,3.3-8.1,2.1-12.2c-1.2-4.1-4-7.7-7.2-10.5c-3.7-3.3-8.1-6-12.9-7.7
							c-1.9-0.7-3.8-1.2-5.8-1s-3.9,1.2-4.9,2.9c-1.4,2.6-0.1,5.8,1.3,8.4c2.5,4.6,5.3,8.9,8.5,13c2.5,3.3,5.4,6.6,9.3,8.1
							c3.9,1.5,7.9,1.3,9.9-1.4"/>
					</g>
				</g>
				<g>
					<g>
						<g>
							<path class="st3" d="M657.5,387.7c0,0,0.1-0.6,0.2-1.6c0.1-1.2,0.3-2.7,0.4-4.6c0.2-1.9,0.5-4.1,1-6.7
								c0.5-2.4,1.3-5.2,2.4-7.9c1.1-2.7,2.4-5.2,4-7.1c1.5-2,3.3-3.4,5-4.2s3.2-1.2,4.2-1.3c1.1-0.1,1.6-0.2,1.6-0.2
								s-0.6-0.1-1.7,0s-2.6,0.3-4.4,1.1c-1.8,0.8-3.7,2.2-5.3,4.2s-3,4.6-4.1,7.3c-1.1,2.7-1.9,5.5-2.4,8c-0.5,2.5-0.7,4.9-0.9,6.8
								c-0.1,1.9-0.2,3.5-0.2,4.6C657.4,387.1,657.4,387.7,657.5,387.7z"/>
						</g>
					</g>
				</g>
				<g>
					<g>
						<g>
							<path class="st3" d="M657.8,384.2c0,0,0-0.3,0-0.8c0-0.6,0-1.3,0-2.2c0-1.9,0-4.7,0.1-8.1c0.2-6.9,0.8-14.3,1.9-24.7
								c1.1-9.8,2.5-21.1,4-28.5c0.3-1.7,0.7-3.2,1-4.6c0.3-1.3,0.5-2.4,0.8-3.4c0.2-0.9,0.4-1.6,0.5-2.1c0.1-0.5,0.2-0.7,0.1-0.8
								c0,0-0.1,0.2-0.3,0.7c-0.2,0.6-0.4,1.2-0.6,2.1c-0.3,0.9-0.6,2-0.9,3.3s-0.7,2.8-1.1,4.6c-1.5,6.7-3.1,16.1-4.2,26.5
								c-1.1,10.4-1.6,19.9-1.7,26.8c0,3.4,0,6.2,0.1,8.1c0.1,0.9,0.1,1.6,0.1,2.2C657.7,383.9,657.7,384.2,657.8,384.2z"/>
						</g>
					</g>
				</g>
				<g>
					<g>
						<g>
							<path class="st3" d="M657.8,365.9c0,0,0-0.8,0-2.3c-0.1-1.5-0.3-3.6-0.7-6.3c-0.4-2.6-1.1-5.8-2-9.1
								c-0.4-1.5-1.4-5.3-3.8-10.8c-3.1-7.5-7.4-13.7-11.1-17.4c-0.9-1-1.8-1.7-2.6-2.4c-0.4-0.3-0.8-0.7-1.1-0.9
								c-0.4-0.2-0.7-0.5-1-0.7c-1.2-0.8-1.9-1.3-1.9-1.2c-0.1,0.1,2.7,1.8,6.3,5.7c3.6,3.8,7.7,9.9,10.8,17.4
								c1.7,4,2.9,7.6,3.8,10.7c1,3.3,1.6,6.5,2.1,9c0.5,2.6,0.7,4.8,0.9,6.2C657.7,365.1,657.8,365.9,657.8,365.9z"/>
						</g>
					</g>
				</g>
			</g>
			<g>
				<g>
					<polygon class="st3" points="640.3,398.1 642.1,423.3 674.1,423.3 675.9,398.1 					"/>
				</g>
			</g>
			<g>
				<g>
					<rect x="637.2" y="388.2" class="st3" width="42.5" height="9.9"/>
				</g>
			</g>
			<g>
				<g>
					<polygon class="st5" points="637.2,422.3 637.2,425 639.2,425 679,425 679,422.3 					"/>
				</g>
			</g>
			<g>
				<g>
					<polygon class="st3" points="641.2,429.9 639.2,425 677.5,425 675.2,429.9 					"/>
				</g>
			</g>
			<g>
				<g>
					<g>
						<path class="st6" d="M675.3,406.3c0,0,0,0.1-0.1,0.2c-0.1,0.2-0.3,0.4-0.5,0.6c-0.5,0.6-1.1,1.4-1.9,2.4l-0.1,0.1l-0.1-0.1
							c-1.2-1.6-2.7-3.8-4.6-6.4h0.3c-1.4,1.9-2.9,4.1-4.5,6.5l-0.1,0.2l-0.2-0.2c-1.7-2-3.5-4.1-5.3-6.4h0.3
							c-0.1,0.1-0.2,0.2-0.3,0.4c-1.7,2.1-3.3,4.1-4.8,6.1l-0.2,0.2l-0.1-0.2c-1.6-2.3-3.1-4.4-4.5-6.5h0.3
							c-2.2,2.5-4.1,4.8-5.5,6.4l-0.1,0.1l-0.1-0.1c-0.7-1.2-1.3-2.2-1.7-2.9c-0.2-0.3-0.3-0.6-0.4-0.8c-0.1-0.2-0.1-0.3-0.1-0.3
							s0.1,0.1,0.2,0.2c0.1,0.2,0.3,0.4,0.5,0.7c0.4,0.7,1.1,1.7,1.8,2.9h-0.2c1.4-1.7,3.3-3.8,5.5-6.5l0.1-0.2l0.1,0.2
							c1.4,1.9,2.9,4.1,4.5,6.4h-0.3c1.5-1.9,3.1-3.9,4.8-6.1c0.1-0.1,0.2-0.3,0.3-0.4l0.2-0.2l0.2,0.2c1.9,2.2,3.7,4.4,5.3,6.5
							h-0.3c1.6-2.3,3.2-4.4,4.5-6.4l0.1-0.2l0.1,0.2c1.8,2.6,3.3,4.9,4.5,6.5h-0.2c0.8-1,1.5-1.8,1.9-2.3c0.2-0.2,0.4-0.4,0.5-0.6
							C675.2,406.4,675.3,406.3,675.3,406.3z"/>
					</g>
				</g>
			</g>
			<g>
				<g>
					<g>
						<path class="st6" d="M676.3,398c0,0.1-8,0.2-17.9,0.2c-9.9,0-17.9-0.1-17.9-0.2s8-0.2,17.9-0.2
							C668.3,397.8,676.3,397.9,676.3,398z"/>
					</g>
				</g>
			</g>
			<g>
				<g>
					<g>
						<path class="st6" d="M677.9,425.3c0,0.1-8.7,0.2-19.4,0.2s-19.4-0.1-19.4-0.2s8.7-0.2,19.4-0.2S677.9,425.2,677.9,425.3z"/>
					</g>
				</g>
			</g>
		</g>
		<g>
			<g>
				<g>
					<g>
						<g>
							<g>
								<g>
									<path class="st7" d="M587,425.1H91.8c-8,0-14.5-6.6-14.5-14.7V82.7c0-4.3,3.5-7.8,7.7-7.8h509.8c3.7,0,6.7,3,6.7,6.8v328.8
										C601.5,418.6,595,425.1,587,425.1z"/>
								</g>
							</g>
						</g>
					</g>
					<g>
						<g>
							<g>
								<g>
									<path class="st7" d="M609.6,429.9H69c-7.6,0-13.7-6.2-13.7-13.9v-16.8h567.9V416C623.3,423.7,617.2,429.9,609.6,429.9z"/>
								</g>
							</g>
						</g>
					</g>
					<g>
						<g>
							<g>
								<g>
									<rect x="91.3" y="88.8" class="st8" width="494.6" height="295.8"/>
								</g>
							</g>
						</g>
					</g>
					<g>
						<g>
							<g>
								<g>
									<polygon class="st9" points="287.7,399.3 294.7,410.6 394,410.6 400.5,399.3 									"/>
								</g>
							</g>
						</g>
					</g>
				</g>
				<g>
					<g>
						<g>
							<rect x="106" y="106" class="st8" width="466.5" height="278.7"/>
						</g>
					</g>
					<g>
						<g>
							<g>
								<path class="st3" d="M141.8,376.4c-0.2,0-0.4-59.4-0.4-132.6s0.2-132.6,0.4-132.6c0.2,0,0.4,59.4,0.4,132.6
									C142.2,317,142,376.4,141.8,376.4z"/>
							</g>
						</g>
					</g>
					<g>
						<g>
							<g>
								<path class="st3" d="M132.4,135.4c0,0.2-3.4,0.4-7.6,0.4c-4.2,0-7.6-0.2-7.6-0.4s3.4-0.4,7.6-0.4
									C129,134.9,132.4,135.1,132.4,135.4z"/>
							</g>
						</g>
					</g>
					<g>
						<g>
							<g>
								<path class="st3" d="M133,120.3c0,0.2-3.4,0.4-7.6,0.4s-7.6-0.2-7.6-0.4c0-0.2,3.4-0.4,7.6-0.4
									C129.6,119.8,133,120,133,120.3z"/>
							</g>
						</g>
					</g>
					<g>
						<g>
							<g>
								<path class="st3" d="M132.4,151.6c0,0.2-3.4,0.4-7.6,0.4c-4.2,0-7.6-0.2-7.6-0.4s3.4-0.4,7.6-0.4
									C129,151.2,132.4,151.3,132.4,151.6z"/>
							</g>
						</g>
					</g>
					<g>
						<g>
							<g>
								<path class="st3" d="M132.4,167.8c0,0.2-3.4,0.4-7.6,0.4c-4.2,0-7.6-0.2-7.6-0.4s3.4-0.4,7.6-0.4
									C129,167.4,132.4,167.6,132.4,167.8z"/>
							</g>
						</g>
					</g>
					<g>
						<g>
							<g>
								<path class="st3" d="M132.4,184.1c0,0.2-3.4,0.4-7.6,0.4c-4.2,0-7.6-0.2-7.6-0.4s3.4-0.4,7.6-0.4
									C129,183.5,132.4,183.8,132.4,184.1z"/>
							</g>
						</g>
					</g>
					<g>
						<g>
							<g>
								<path class="st3" d="M132.4,200.2c0,0.2-3.4,0.4-7.6,0.4c-4.2,0-7.6-0.2-7.6-0.4s3.4-0.4,7.6-0.4
									C129,199.8,132.4,199.9,132.4,200.2z"/>
							</g>
						</g>
					</g>
					<g>
						<g>
							<g>
								<path class="st3" d="M132.4,216.4c0,0.2-3.4,0.4-7.6,0.4c-4.2,0-7.6-0.2-7.6-0.4s3.4-0.4,7.6-0.4
									C129,216,132.4,216.2,132.4,216.4z"/>
							</g>
						</g>
					</g>
					<g>
						<g>
							<g>
								<path class="st3" d="M132.4,232.7c0,0.2-3.4,0.4-7.6,0.4c-4.2,0-7.6-0.2-7.6-0.4s3.4-0.4,7.6-0.4
									C129,232.2,132.4,232.4,132.4,232.7z"/>
							</g>
						</g>
					</g>
					<g>
						<g>
							<g>
								<path class="st3" d="M132.4,248.9c0,0.2-3.4,0.4-7.6,0.4c-4.2,0-7.6-0.2-7.6-0.4s3.4-0.4,7.6-0.4
									C129,248.5,132.4,248.6,132.4,248.9z"/>
							</g>
						</g>
					</g>
					<g>
						<g>
							<g>
								<path class="st3" d="M132.4,265.1c0,0.2-3.4,0.4-7.6,0.4c-4.2,0-7.6-0.2-7.6-0.4s3.4-0.4,7.6-0.4
									C129,264.7,132.4,264.9,132.4,265.1z"/>
							</g>
						</g>
					</g>
					<g>
						<g>
							<g>
								<path class="st3" d="M132.4,281.3c0,0.2-3.4,0.4-7.6,0.4c-4.2,0-7.6-0.2-7.6-0.4c0-0.2,3.4-0.4,7.6-0.4
									C129,280.8,132.4,281,132.4,281.3z"/>
							</g>
						</g>
					</g>
					<g>
						<g>
							<g>
								<path class="st3" d="M132.4,297.5c0,0.2-3.4,0.4-7.6,0.4c-4.2,0-7.6-0.2-7.6-0.4s3.4-0.4,7.6-0.4
									C129,297.1,132.4,297.2,132.4,297.5z"/>
							</g>
						</g>
					</g>
					<g>
						<g>
							<g>
								<path class="st3" d="M132.4,313.7c0,0.2-3.4,0.4-7.6,0.4c-4.2,0-7.6-0.2-7.6-0.4c0-0.2,3.4-0.4,7.6-0.4
									C129,313.3,132.4,313.5,132.4,313.7z"/>
							</g>
						</g>
					</g>
					<g>
						<g>
							<g>
								<path class="st3" d="M132.4,330c0,0.2-3.4,0.4-7.6,0.4c-4.2,0-7.6-0.2-7.6-0.4c0-0.2,3.4-0.4,7.6-0.4
									C129,329.5,132.4,329.7,132.4,330z"/>
							</g>
						</g>
					</g>
					<g>
						<g>
							<g>
								<path class="st3" d="M132.4,346.2c0,0.2-3.4,0.4-7.6,0.4c-4.2,0-7.6-0.2-7.6-0.4s3.4-0.4,7.6-0.4
									C129,345.8,132.4,345.9,132.4,346.2z"/>
							</g>
						</g>
					</g>
					<g>
						<g>
							<g>
								<path class="st3" d="M132.4,362.3c0,0.2-3.4,0.4-7.6,0.4c-4.2,0-7.6-0.2-7.6-0.4c0-0.2,3.4-0.4,7.6-0.4
									C129,361.9,132.4,362.1,132.4,362.3z"/>
							</g>
						</g>
					</g>
					<g>
						<g>
							<g>
								<path class="st10" d="M193.1,134.4c0,0.2-8.8,0.4-19.7,0.4s-19.7-0.2-19.7-0.4s8.8-0.4,19.7-0.4
									C184.3,134,193.1,134.2,193.1,134.4z"/>
							</g>
						</g>
					</g>
					<g>
						<g>
							<g>
								<path class="st10" d="M193.1,362.3c0,0.2-8.8,0.4-19.7,0.4s-19.7-0.2-19.7-0.4c0-0.2,8.8-0.4,19.7-0.4
									C184.3,361.9,193.1,362.1,193.1,362.3z"/>
							</g>
						</g>
					</g>
					<g>
						<g>
							<g>
								<path class="st10" d="M247.9,167.8c0,0.2-16.5,0.4-36.8,0.4s-36.8-0.2-36.8-0.4s16.5-0.4,36.8-0.4
									C231.4,167.4,247.9,167.6,247.9,167.8z"/>
							</g>
						</g>
					</g>
					<g>
						<g>
							<g>
								<path class="st3" d="M332.9,167.8c0,0.2-16.5,0.4-36.8,0.4s-36.8-0.2-36.8-0.4s16.5-0.4,36.8-0.4
									C316.5,167.4,332.9,167.6,332.9,167.8z"/>
							</g>
						</g>
					</g>
					<g>
						<g>
							<g>
								<path class="st3" d="M300.4,184.1c0,0.2-24.3,0.4-54.2,0.4s-54.2-0.2-54.2-0.4s24.3-0.4,54.2-0.4
									C276.2,183.5,300.4,183.8,300.4,184.1z"/>
							</g>
						</g>
					</g>
					<g>
						<g>
							<g>
								<path class="st3" d="M300.4,200.2c0,0.2-24.3,0.4-54.2,0.4s-54.2-0.2-54.2-0.4s24.3-0.4,54.2-0.4
									C276.2,199.8,300.4,199.9,300.4,200.2z"/>
							</g>
						</g>
					</g>
					<g>
						<g>
							<g>
								<path class="st3" d="M375.2,248.9c0,0.2-24.3,0.4-54.2,0.4c-29.9,0-54.2-0.2-54.2-0.4s24.3-0.4,54.2-0.4
									C350.9,248.5,375.2,248.6,375.2,248.9z"/>
							</g>
						</g>
					</g>
					<g>
						<g>
							<g>
								<path class="st3" d="M342.9,216.4c0,0.2-24.3,0.4-54.2,0.4c-29.9,0-54.2-0.2-54.2-0.4s24.3-0.4,54.2-0.4
									C318.6,216,342.9,216.2,342.9,216.4z"/>
							</g>
						</g>
					</g>
					<g>
						<g>
							<g>
								<path class="st3" d="M475.4,216.4c0,0.2-24.3,0.4-54.2,0.4c-29.9,0-54.2-0.2-54.2-0.4s24.3-0.4,54.2-0.4
									C451.2,216,475.4,216.2,475.4,216.4z"/>
							</g>
						</g>
					</g>
					<g>
						<g>
							<g>
								<path class="st11" d="M429.4,184.1c0,0.2-24.3,0.4-54.2,0.4c-29.9,0-54.2-0.2-54.2-0.4s24.3-0.4,54.2-0.4
									C405.1,183.5,429.4,183.8,429.4,184.1z"/>
							</g>
						</g>
					</g>
					<g>
						<g>
							<g>
								<path class="st11" d="M504.3,248.9c0,0.2-24.3,0.4-54.2,0.4c-29.9,0-54.2-0.2-54.2-0.4s24.3-0.4,54.2-0.4
									S504.3,248.6,504.3,248.9z"/>
							</g>
						</g>
					</g>
					<g>
						<g>
							<g>
								<path class="st12" d="M489.3,200.2c0,0.2-37.7,0.4-84.2,0.4s-84.2-0.2-84.2-0.4s37.7-0.4,84.2-0.4
									C451.6,199.8,489.3,199.9,489.3,200.2z"/>
							</g>
						</g>
					</g>
					<g>
						<g>
							<g>
								<path class="st11" d="M193.1,151.6c0,0.2-8.8,0.4-19.7,0.4s-19.7-0.2-19.7-0.4s8.8-0.4,19.7-0.4
									C184.3,151.2,193.1,151.3,193.1,151.6z"/>
							</g>
						</g>
					</g>
					<g>
						<g>
							<g>
								<path class="st11" d="M193.1,346.2c0,0.2-8.8,0.4-19.7,0.4s-19.7-0.2-19.7-0.4s8.8-0.4,19.7-0.4
									C184.3,345.8,193.1,345.9,193.1,346.2z"/>
							</g>
						</g>
					</g>
					<g>
						<g>
							<g>
								<path class="st11" d="M212.6,216.4c0,0.2-8.8,0.4-19.7,0.4s-19.7-0.2-19.7-0.4s8.8-0.4,19.7-0.4S212.6,216.2,212.6,216.4z"
									/>
							</g>
						</g>
					</g>
					<g>
						<g>
							<g>
								<path class="st10" d="M527.8,216.4c0,0.2-8.8,0.4-19.7,0.4s-19.7-0.2-19.7-0.4s8.8-0.4,19.7-0.4
									C519,216,527.8,216.2,527.8,216.4z"/>
							</g>
						</g>
					</g>
					<g>
						<g>
							<g>
								<path class="st10" d="M247.9,281.2c0,0.2-16.5,0.4-36.8,0.4s-36.8-0.2-36.8-0.4s16.5-0.4,36.8-0.4
									C231.4,280.7,247.9,280.9,247.9,281.2z"/>
							</g>
						</g>
					</g>
					<g>
						<g>
							<g>
								<path class="st3" d="M332.9,281.2c0,0.2-16.5,0.4-36.8,0.4s-36.8-0.2-36.8-0.4s16.5-0.4,36.8-0.4
									C316.5,280.7,332.9,280.9,332.9,281.2z"/>
							</g>
						</g>
					</g>
					<g>
						<g>
							<g>
								<path class="st3" d="M300.4,297.4c0,0.2-24.3,0.4-54.2,0.4s-54.2-0.2-54.2-0.4c0-0.2,24.3-0.4,54.2-0.4
									C276.2,297,300.4,297.2,300.4,297.4z"/>
							</g>
						</g>
					</g>
					<g>
						<g>
							<g>
								<path class="st3" d="M300.4,313.6c0,0.2-24.3,0.4-54.2,0.4s-54.2-0.2-54.2-0.4s24.3-0.4,54.2-0.4
									C276.2,313.2,300.4,313.4,300.4,313.6z"/>
							</g>
						</g>
					</g>
					<g>
						<g>
							<g>
								<path class="st3" d="M342.9,329.9c0,0.2-24.3,0.4-54.2,0.4c-29.9,0-54.2-0.2-54.2-0.4c0-0.2,24.3-0.4,54.2-0.4
									C318.6,329.4,342.9,329.6,342.9,329.9z"/>
							</g>
						</g>
					</g>
					<g>
						<g>
							<g>
								<path class="st3" d="M475.4,329.9c0,0.2-24.3,0.4-54.2,0.4c-29.9,0-54.2-0.2-54.2-0.4c0-0.2,24.3-0.4,54.2-0.4
									C451.2,329.4,475.4,329.6,475.4,329.9z"/>
							</g>
						</g>
					</g>
					<g>
						<g>
							<g>
								<path class="st11" d="M429.4,297.4c0,0.2-24.3,0.4-54.2,0.4c-29.9,0-54.2-0.2-54.2-0.4c0-0.2,24.3-0.4,54.2-0.4
									S429.4,297.2,429.4,297.4z"/>
							</g>
						</g>
					</g>
					<g>
						<g>
							<g>
								<path class="st12" d="M489.3,313.6c0,0.2-37.7,0.4-84.2,0.4s-84.2-0.2-84.2-0.4s37.7-0.4,84.2-0.4
									C451.6,313.2,489.3,313.4,489.3,313.6z"/>
							</g>
						</g>
					</g>
					<g>
						<g>
							<g>
								<path class="st11" d="M212.6,329.9c0,0.2-8.8,0.4-19.7,0.4s-19.7-0.2-19.7-0.4c0-0.2,8.8-0.4,19.7-0.4
									C203.8,329.4,212.6,329.6,212.6,329.9z"/>
							</g>
						</g>
					</g>
					<g>
						<g>
							<g>
								<path class="st10" d="M527.8,329.9c0,0.2-8.8,0.4-19.7,0.4s-19.7-0.2-19.7-0.4c0-0.2,8.8-0.4,19.7-0.4
									C519,329.4,527.8,329.6,527.8,329.9z"/>
							</g>
						</g>
					</g>
				</g>
			</g>
			<g>
				<path class="st13" d="M538.3,409.5c0,0.1-100.4,0.3-224.2,0.3c-123.9,0-224.2-0.1-224.2-0.3c0-0.1,100.4-0.3,224.2-0.3
					C437.9,409.3,538.3,409.4,538.3,409.5z"/>
			</g>
		</g>
		<g>
			<g>
				<path class="st10" d="M73,320.6c-13.8-14.3-35.3-20.2-54.3-15.1c16.5,11.2,35.1,17.2,55,17.4"/>
			</g>
			<g>
				<g>
					<path class="st10" d="M54.5,254.6c2.3-16.2-4-34.4-15.9-46.1C38.2,224.6,44.9,242.6,54.5,254.6"/>
				</g>
				<g>
					<path class="st10" d="M64.1,285.3c-8.5-16.5-22.5-30-39.2-37.9c5,18.6,20.8,33.9,39.4,38.1"/>
				</g>
				<g>
					<path class="st10" d="M66.1,291.2c-9.7,0.3-19.5-0.1-28.8-2.5c-9.3-2.5-18.3-7.3-24.5-14.8c18.8,0,37.6,5.8,53.2,16.4"/>
				</g>
				<g>
					<path class="st10" d="M61.2,271.7c4.9-18.6,13-31.5,27.5-41.9c1.1,9-1.1,18.5-6.1,26.1C77.6,263.5,69.9,269.2,61.2,271.7"/>
				</g>
				<g>
					<path class="st10" d="M97.7,303.8c0.3-10.8-6.6-21.4-16.5-25.5C82,287.9,89.4,299,97.7,303.8"/>
				</g>
				<g>
					<path class="st10" d="M102.3,288.1c1.1-15.6,12-29.9,26.6-35C125.6,268.7,116.7,281.6,102.3,288.1"/>
				</g>
				<g>
					<path class="st10" d="M95.4,315.9c3.4-5,9-8,14.7-9.5c5.8-1.5,11.8-1.6,17.7-1.8c-8,8.9-20.1,14-32,13.5"/>
				</g>
				<g>
					<path class="st10" d="M88.5,355.6c10.7-3.3,22.7-2.5,32.8,2.3c10.1,4.9,18.4,13.7,22.6,24.2
						C123.7,378.2,103.9,369.2,88.5,355.6"/>
				</g>
				<g>
					<path class="st10" d="M66.4,341.8c3.3,10,2.7,22-4.7,30.6C58.6,362.2,60.4,350.6,66.4,341.8"/>
				</g>
				<g>
					<path class="st10" d="M53.3,336.3c-0.9,12.8-9.1,24.9-20.5,30.5c-0.6,0.3-1.2,0.5-1.8,0.3c-0.9-0.4-1-1.6-0.9-2.6
						C31.5,351.6,40.9,339.3,53.3,336.3"/>
				</g>
				<g>
					<path class="st10" d="M44.8,334.9c-5.7,6.2-13.9,9.8-22.2,9.9c-8.3,0-16.6-3.5-22.3-9.7C14.4,333.6,30.7,332.5,44.8,334.9"/>
				</g>
				<g>
					<g>
						<g>
							<path class="st13" d="M42.6,220.5c0,0,0,0.1,0.1,0.4c0.1,0.3,0.2,0.7,0.4,1.2c0.4,1.1,1,2.6,1.7,4.7c0.8,2,1.6,4.4,2.7,7.4
								c0.5,1.4,1.1,2.9,1.6,4.6c0.6,1.6,1.1,3.3,1.8,5.2c2.5,7.3,5.3,16,8.3,25.7s6.1,20.4,9.1,31.8c3,11.3,5.7,22.1,8,32.1
								c2.2,9.9,4.1,18.8,5.5,26.4c0.4,1.9,0.7,3.6,1,5.4c0.3,1.7,0.6,3.3,0.8,4.9c0.5,3,1,5.6,1.2,7.7c0.3,2.1,0.6,3.7,0.7,4.9
								c0.1,0.5,0.2,0.9,0.2,1.3c0,0.3,0.1,0.4,0.1,0.4s0-0.1,0-0.4s-0.1-0.7-0.2-1.3c-0.2-1.1-0.4-2.8-0.6-5
								c-0.3-2.1-0.7-4.8-1.2-7.8c-0.2-1.5-0.5-3.1-0.8-4.9c-0.3-1.7-0.6-3.5-1-5.4c-1.3-7.6-3.2-16.5-5.4-26.4
								c-2.2-9.9-4.9-20.7-7.9-32.1c-3.1-11.3-6.2-22-9.2-31.8c-3-9.7-5.9-18.4-8.4-25.6c-0.6-1.8-1.2-3.5-1.8-5.2
								c-0.6-1.6-1.2-3.1-1.7-4.6c-1-2.8-2-5.4-2.7-7.3c-0.8-2-1.4-3.5-1.8-4.6c-0.2-0.5-0.4-0.9-0.5-1.2
								C42.7,220.7,42.6,220.5,42.6,220.5z"/>
						</g>
					</g>
					<g>
						<g>
							<path class="st13" d="M120.4,261.4c0,0-0.1,0.1-0.2,0.2c-0.2,0.2-0.4,0.4-0.7,0.7c-0.6,0.6-1.4,1.6-2.5,2.8
								c-2.1,2.5-5.2,6.3-8.3,11.2c-3.2,5-6.4,11.3-8.7,18.8c-2.3,7.5-3.8,16.1-5.2,25c-2.9,17.9-6.4,33.9-9,45.4
								c-1.3,5.8-2.3,10.4-3.1,13.7c-0.3,1.6-0.6,2.8-0.8,3.7c-0.1,0.4-0.1,0.7-0.2,1c0,0.2-0.1,0.3,0,0.3c0,0,0-0.1,0.1-0.3
								c0.1-0.2,0.1-0.6,0.3-0.9c0.2-0.9,0.5-2.1,0.9-3.7c0.8-3.2,1.9-7.9,3.2-13.7c2.7-11.5,6.3-27.5,9.1-45.4
								c1.4-8.9,2.9-17.4,5.2-24.9c2.2-7.5,5.4-13.9,8.6-18.8c3.1-5,6.1-8.8,8.2-11.3c1-1.3,1.9-2.2,2.4-2.9
								c0.3-0.3,0.5-0.6,0.6-0.7S120.4,261.4,120.4,261.4z"/>
						</g>
					</g>
					<g>
						<g>
							<path class="st13" d="M40.5,334.3c0,0,0.2,0.1,0.5,0.1c0.4,0,0.9,0.1,1.5,0.2c0.3,0,0.7,0.1,1.1,0.1c0.4,0.1,0.8,0.1,1.3,0.2
								c0.9,0.1,1.9,0.3,3,0.5c0.6,0.1,1.1,0.2,1.8,0.3c0.6,0.2,1.2,0.3,1.9,0.5c1.3,0.3,2.7,0.8,4.1,1.2c2.8,1,5.9,2.3,9,3.9
								c3,1.7,5.7,3.6,8,5.7c1.1,1,2.2,2,3.1,3c1,0.9,1.7,1.9,2.4,2.8c0.8,0.9,1.3,1.8,1.8,2.5c0.5,0.7,0.9,1.4,1.2,2
								c0.3,0.5,0.5,0.9,0.8,1.3c0.2,0.3,0.3,0.4,0.3,0.4s-0.1-0.2-0.2-0.5c-0.2-0.4-0.4-0.8-0.7-1.3c-0.3-0.6-0.6-1.3-1.2-2
								c-0.5-0.8-1-1.7-1.8-2.6c-0.7-0.9-1.5-1.9-2.4-2.9c-0.9-1-2-2-3.1-3c-2.3-2-5-4-8.1-5.8s-6.2-3-9.1-3.9
								c-1.5-0.4-2.8-0.9-4.2-1.2c-0.7-0.2-1.3-0.3-1.9-0.4c-0.6-0.1-1.2-0.2-1.8-0.3c-1.1-0.2-2.2-0.3-3.1-0.4
								c-0.4-0.1-0.9-0.1-1.3-0.1c-0.4,0-0.7,0-1.1-0.1c-0.6,0-1.1,0-1.5-0.1C40.7,334.3,40.5,334.3,40.5,334.3z"/>
						</g>
					</g>
				</g>
				<g>
					<g>
						<path class="st13" d="M36.5,261.8c0,0,0.3,0.4,1,1c0.8,0.7,1.7,1.5,2.9,2.5c2.5,2.1,5.9,5.1,9.8,8.3c3.8,3.2,7.3,6.1,9.9,8.2
							c1.2,1,2.2,1.8,3,2.4c0.7,0.6,1.1,0.8,1.2,0.8c0,0-0.3-0.4-1-1c-0.8-0.7-1.7-1.5-2.9-2.5c-2.5-2.1-5.9-5.1-9.7-8.3
							c-3.8-3.2-7.3-6.1-9.8-8.2c-1.2-1-2.2-1.8-3-2.4C36.9,262,36.5,261.7,36.5,261.8z"/>
					</g>
				</g>
				<g>
					<g>
						<path class="st13" d="M33,280.7c0,0.1,7.4,2.5,16.6,5.3c9.2,2.7,16.7,4.9,16.8,4.8c0-0.1-7.4-2.5-16.6-5.3
							C40.6,282.7,33.1,280.5,33,280.7z"/>
					</g>
				</g>
				<g>
					<g>
						<path class="st13" d="M60.5,273.1c0,0,0.3-0.4,0.8-1.1c0.5-0.8,1.2-1.8,2-3c1.7-2.5,4-6,6.8-9.7c2.8-3.7,5.5-6.9,7.5-9.2
							c0.9-1.1,1.7-2,2.4-2.7c0.6-0.6,0.8-1,0.8-1s-0.4,0.3-1,0.9c-0.6,0.6-1.5,1.5-2.5,2.6c-2.1,2.2-4.8,5.5-7.6,9.1
							c-2.8,3.7-5.1,7.2-6.7,9.8c-0.8,1.3-1.4,2.3-1.8,3.1C60.7,272.7,60.4,273.1,60.5,273.1z"/>
					</g>
				</g>
				<g>
					<g>
						<path class="st13" d="M86.3,283.7c-0.1,0,0.6,1.1,1.7,2.9c1.1,1.7,2.6,4.2,4.2,7c1.6,2.7,2.9,5.4,3.8,7.2s1.5,3,1.6,3
							s-0.4-1.2-1.2-3.1c-0.8-1.9-2.1-4.6-3.7-7.3c-1.6-2.8-3.1-5.3-4.3-7C87.2,284.7,86.4,283.7,86.3,283.7z"/>
					</g>
				</g>
				<g>
					<g>
						<path class="st13" d="M95.1,316.4c0,0.1,1.5-0.6,3.8-1.7c2.3-1,5.6-2.4,9.2-3.7c3.7-1.3,7.1-2.2,9.5-2.9c2.5-0.6,4-1,4-1.1
							c0,0-0.4,0-1.1,0.1s-1.7,0.3-3,0.6c-2.5,0.5-5.9,1.4-9.6,2.7c-3.7,1.3-6.9,2.7-9.2,3.9c-1.1,0.6-2.1,1.1-2.7,1.4
							C95.5,316.2,95.1,316.4,95.1,316.4z"/>
					</g>
				</g>
				<g>
					<g>
						<path class="st13" d="M88.2,355.6c0,0,0.2,0.1,0.5,0.2c0.4,0.1,0.8,0.2,1.3,0.3c1.3,0.3,2.9,0.7,4.9,1.1
							c4.2,1,10,2.2,16.2,4.3c6.2,2.1,11.5,4.9,15.1,7.2c1.8,1.1,3.2,2.2,4.2,2.9c1,0.7,1.5,1.1,1.5,1.1s-0.1-0.1-0.3-0.4
							c-0.2-0.2-0.6-0.5-1-0.9c-0.9-0.8-2.3-1.8-4.1-3c-3.6-2.4-8.9-5.3-15.1-7.4c-6.2-2.1-12.1-3.2-16.3-4.1c-2-0.4-3.7-0.7-5-1
							C88.8,355.7,88.2,355.6,88.2,355.6z"/>
					</g>
				</g>
				<g>
					<g>
						<path class="st13" d="M63,365.3c0.1,0,1-5.3,2-11.7c0.9-6.6,1.6-11.8,1.4-11.8c-0.1,0-1,5.3-2,11.7
							C63.5,359.9,62.9,365.3,63,365.3z"/>
					</g>
				</g>
				<g>
					<g>
						<path class="st13" d="M36.8,355.7c0.1,0,0.9-1,2.4-2.8c1.4-1.8,3.4-4.2,5.6-6.9s4.3-5.1,5.8-6.8s2.4-2.8,2.4-2.8
							s-0.3,0.2-0.8,0.6s-1.1,1.1-1.9,1.9c-1.6,1.6-3.7,3.9-5.9,6.7c-2.2,2.6-4.1,5.2-5.5,7c-0.7,0.9-1.2,1.7-1.6,2.2
							C37,355.3,36.8,355.7,36.8,355.7z"/>
					</g>
				</g>
			</g>
			<g>
				<polygon class="st14" points="106.1,380.1 106.1,393.3 102.9,393.3 91.4,430 65.9,430 54.8,393.6 50.4,393.3 50.4,380.1 				"/>
			</g>
			<g>
				<polygon class="st15" points="106.1,380.1 106.1,393.3 102.9,393.3 91.4,430 65.9,430 54.8,393.6 50.4,393.3 50.4,380.1 				"/>
			</g>
			<g>
				<g>
					<path class="st13" d="M52.6,393.6c0,0.1,11.3,0.3,25.2,0.3s25.2-0.1,25.2-0.3c0-0.1-11.3-0.3-25.2-0.3
						C63.9,393.4,52.6,393.5,52.6,393.6z"/>
				</g>
			</g>
			<g>
				<g>
					<path class="st13" d="M34.2,309.5c0,0,0.6,0.2,1.6,0.4c1.1,0.3,2.7,0.6,4.5,1.1c3.8,0.9,9,2.4,14.6,4.2
						c5.6,1.9,10.6,3.9,14.2,5.5c1.7,0.8,3.1,1.4,4.2,1.8c1,0.4,1.6,0.7,1.6,0.6c0,0-0.5-0.3-1.5-0.8c-1-0.5-2.4-1.2-4.2-2
						c-3.5-1.6-8.5-3.7-14.2-5.7c-5.6-1.9-10.9-3.3-14.7-4.1c-1.9-0.4-3.4-0.7-4.5-0.9C34.8,309.6,34.3,309.5,34.2,309.5z"/>
				</g>
			</g>
			<g>
				<g>
					<path class="st11" d="M61.1,414c0,0.1,7.9,0.3,17.7,0.3s17.7-0.1,17.7-0.3s-7.9-0.3-17.7-0.3S61.1,413.8,61.1,414z"/>
				</g>
			</g>
			<g>
				<g>
					<path class="st11" d="M60.1,411c0,0.1,8.4,0.3,18.7,0.3s18.7-0.1,18.7-0.3s-8.4-0.3-18.7-0.3C68.4,410.7,60.1,410.8,60.1,411z"
						/>
				</g>
			</g>
		</g>
		<g>
			<g>
				<polygon class="st11" points="590.8,46.7 323.3,46.7 323.3,214 548.5,214 562.4,246.5 574.8,214 590.8,214 				"/>
				<g>
					<path class="st13" d="M590.8,46.7c0,1.6,0.1,64.5,0.2,167.4v0.2h-0.2c-4.9,0-10.4,0-16,0l0.2-0.1c-3.9,10.1-8,21.1-12.3,32.4
						l-0.2,0.5l-0.2-0.5c-4.4-10.1-9.1-21.1-13.9-32.4l0.2,0.1c-60.5,0-130,0-203.5,0c-7.2,0-14.4,0-21.5,0h-0.3V214
						c0-59.7,0-116.2,0-167.4v-0.2h0.2C481.3,46.6,588.7,46.7,590.8,46.7c-2.1,0-109.5,0.1-267.3,0.2l0.2-0.2
						c0,51.1,0,107.7,0,167.4l-0.3-0.3c7.1,0,14.3,0,21.5,0c73.6,0,143.1,0,203.5,0h0.2l0.1,0.1c4.8,11.2,9.6,22.2,13.9,32.4h-0.4
						c4.3-11.3,8.5-22.2,12.4-32.4l0.1-0.1h0.1c5.6,0,11.1,0,16,0l-0.2,0.2C590.7,111.1,590.8,48.3,590.8,46.7z"/>
				</g>
			</g>
			<g>
				<g>
					<g>
						<path class="st13" d="M590.6,63c0,0.2-59.7,0.4-133.4,0.4S323.7,63.2,323.7,63c0-0.2,59.7-0.4,133.4-0.4
							C530.9,62.7,590.6,62.8,590.6,63z"/>
					</g>
				</g>
				<g>
					<g>
						<path class="st13" d="M337.6,55.6c0,1.2-1,2.2-2.2,2.2c-1.2,0-2.2-1-2.2-2.2s1-2.2,2.2-2.2C336.6,53.4,337.6,54.4,337.6,55.6z
							"/>
					</g>
					<g>
						<path class="st13" d="M345.5,55.6c0,1.2-1,2.2-2.2,2.2c-1.2,0-2.2-1-2.2-2.2s1-2.2,2.2-2.2C344.5,53.4,345.5,54.4,345.5,55.6z
							"/>
					</g>
					<g>
						<path class="st13" d="M353.5,55.6c0,1.2-1,2.2-2.2,2.2c-1.2,0-2.2-1-2.2-2.2s1-2.2,2.2-2.2C352.5,53.4,353.5,54.4,353.5,55.6z
							"/>
					</g>
				</g>
				<g>
					<path class="st13" d="M352.6,92.9l-6.3,2.4l6.3,2.4v1.5l-8-3.2v-1.4l8-3.2V92.9z"/>
					<path class="st13" d="M359.2,86.6h1.6l-5.9,17h-1.6L359.2,86.6z"/>
					<path class="st13" d="M369.3,94.7v1.5l-8,3.2v-1.5l6.4-2.4l-6.4-2.4v-1.5L369.3,94.7z"/>
					<path class="st13" d="M371.3,100.6c0-0.7,0.6-1.2,1.2-1.2s1.2,0.5,1.2,1.2s-0.5,1.2-1.2,1.2
						C371.9,101.8,371.3,101.3,371.3,100.6z"/>
					<path class="st13" d="M375.4,100.6c0-0.7,0.6-1.2,1.2-1.2s1.2,0.5,1.2,1.2s-0.5,1.2-1.2,1.2C376,101.8,375.4,101.3,375.4,100.6
						z"/>
					<path class="st13" d="M379.5,100.6c0-0.7,0.6-1.2,1.2-1.2s1.2,0.5,1.2,1.2s-0.5,1.2-1.2,1.2S379.5,101.3,379.5,100.6z"/>
				</g>
				<g>
					<g>
						<path class="st12" d="M521.4,116.8c0,0.2-39.5,0.4-88.3,0.4s-88.3-0.2-88.3-0.4s39.5-0.4,88.3-0.4
							C481.9,116.5,521.4,116.6,521.4,116.8z"/>
					</g>
				</g>
				<g>
					<g>
						<path class="st13" d="M550.2,117.4c0,0.2-3.8,0.4-8.5,0.4s-8.5-0.2-8.5-0.4c0-0.2,3.8-0.4,8.5-0.4S550.2,117.2,550.2,117.4z"
							/>
					</g>
				</g>
				<g>
					<g>
						<path class="st13" d="M575,117.4c0,0.2-4.1,0.4-9.3,0.4c-5.1,0-9.3-0.2-9.3-0.4c0-0.2,4.1-0.4,9.3-0.4
							C570.9,117,575,117.2,575,117.4z"/>
					</g>
				</g>
				<g>
					<g>
						<path class="st12" d="M457.3,131.9c0,0.2-25.1,0.4-56.1,0.4s-56.1-0.2-56.1-0.4s25.1-0.4,56.1-0.4
							C432.2,131.5,457.3,131.7,457.3,131.9z"/>
					</g>
				</g>
				<g>
					<g>
						<path class="st12" d="M456.5,188c0,0.2-25.1,0.4-56.1,0.4s-56.1-0.2-56.1-0.4s25.1-0.4,56.1-0.4
							C431.4,187.6,456.5,187.8,456.5,188z"/>
					</g>
				</g>
				<g>
					<g>
						<path class="st13" d="M498.1,131.9c0,0.2-6.8,0.4-15.3,0.4c-8.4,0-15.3-0.2-15.3-0.4s6.8-0.4,15.3-0.4
							C491.2,131.5,498.1,131.7,498.1,131.9z"/>
					</g>
				</g>
				<g>
					<g>
						<path class="st13" d="M497.7,188c0,0.2-6.8,0.4-15.3,0.4c-8.4,0-15.3-0.2-15.3-0.4s6.8-0.4,15.3-0.4
							C490.9,187.6,497.7,187.8,497.7,188z"/>
					</g>
				</g>
				<g>
					<g>
						<path class="st10" d="M352.5,139.6c0,0.2-1.7,0.4-3.8,0.4s-3.8-0.2-3.8-0.4s1.7-0.4,3.8-0.4
							C350.8,139.2,352.5,139.4,352.5,139.6z"/>
					</g>
				</g>
				<g>
					<g>
						<path class="st13" d="M378.6,139.7c0,0.2-3.7,0.4-8.2,0.4s-8.2-0.2-8.2-0.4s3.7-0.4,8.2-0.4
							C374.9,139.4,378.6,139.5,378.6,139.7z"/>
					</g>
				</g>
				<g>
					<g>
						<path class="st13" d="M395.3,139.7c0,0.2-3.2,0.4-7,0.4c-3.9,0-7-0.2-7-0.4s3.2-0.4,7-0.4
							C392.1,139.4,395.3,139.5,395.3,139.7z"/>
					</g>
				</g>
				<g>
					<g>
						<path class="st13" d="M416.4,139.7c0,0.2-3.2,0.4-7.2,0.4c-4,0-7.2-0.2-7.2-0.4s3.2-0.4,7.2-0.4
							C413.2,139.4,416.4,139.5,416.4,139.7z"/>
					</g>
				</g>
				<g>
					<g>
						<path class="st13" d="M434.9,139.7c0,0.2-2.9,0.4-6.5,0.4c-3.6,0-6.5-0.2-6.5-0.4s2.9-0.4,6.5-0.4
							C432,139.4,434.9,139.5,434.9,139.7z"/>
					</g>
				</g>
				<g>
					<g>
						<path class="st13" d="M496.2,139.7c0,0.2-12.9,0.4-28.7,0.4c-15.9,0-28.7-0.2-28.7-0.4s12.8-0.4,28.7-0.4
							C483.4,139.4,496.2,139.5,496.2,139.7z"/>
					</g>
				</g>
				<g>
					<g>
						<path class="st10" d="M351.4,149.3c0,0.2-1.5,0.4-3.3,0.4c-1.8,0-3.3-0.2-3.3-0.4s1.5-0.4,3.3-0.4
							C349.9,149,351.4,149.1,351.4,149.3z"/>
					</g>
				</g>
				<g>
					<g>
						<path class="st10" d="M351.7,159.3c0,0.2-1.5,0.4-3.4,0.4c-1.9,0-3.4-0.2-3.4-0.4s1.5-0.4,3.4-0.4
							C350.2,159,351.7,159.1,351.7,159.3z"/>
					</g>
				</g>
				<g>
					<g>
						<path class="st10" d="M351.7,170.6c0,0.2-1.5,0.4-3.4,0.4c-1.9,0-3.4-0.2-3.4-0.4s1.5-0.4,3.4-0.4
							C350.2,170.3,351.7,170.4,351.7,170.6z"/>
					</g>
				</g>
				<g>
					<g>
						<path class="st13" d="M413.5,170.1c0,0.2-11.3,0.4-25.3,0.4c-14,0-25.3-0.2-25.3-0.4s11.3-0.4,25.3-0.4
							C402.2,169.8,413.5,169.9,413.5,170.1z"/>
					</g>
				</g>
				<g>
					<g>
						<path class="st13" d="M409.1,159.3c0,0.2-10.8,0.4-24.1,0.4c-13.3,0-24.1-0.2-24.1-0.4s10.8-0.4,24.1-0.4
							C398.3,159,409.1,159.1,409.1,159.3z"/>
					</g>
				</g>
				<g>
					<g>
						<path class="st13" d="M525.7,148.8c0,0.2-36.8,0.4-82.2,0.4c-45.4,0-82.2-0.2-82.2-0.4s36.8-0.4,82.2-0.4
							S525.7,148.6,525.7,148.8z"/>
					</g>
				</g>
			</g>
		</g>
		<g>
			<g>
				<polygon class="st11" points="607.2,115.1 607.2,257.4 585.3,275.8 607.2,275.8 609.4,275.8 699.7,275.8 699.7,115.1 				"/>
				<g>
					<path class="st13" d="M607.2,115.1c0,0,0.5,0,1.6,0c1.1,0,2.7,0,4.8,0c4.2,0,10.4,0,18.4,0c16,0,39.2-0.1,67.7-0.1h0.2v0.2
						c0,42.9,0,99,0.1,160.7v0.3h-0.3c-5.1,0-10.5,0-16,0c-34.8,0-68.1,0-98.4,0h-0.7l0.5-0.4c7.6-6.4,14.9-12.5,21.9-18.4l-0.1,0.2
						c0-42.5,0.1-78.1,0.1-103.1c0-12.4,0-22.2,0.1-28.9c0-3.3,0-5.9,0-7.6c0-0.8,0-1.5,0-1.9C607.2,115.4,607.2,115.1,607.2,115.1
						s0,0.2,0,0.7c0,0.4,0,1.1,0,2c0,1.7,0,4.3,0,7.7c0,6.7,0,16.5,0.1,29c0,24.9,0.1,60.5,0.1,102.8v0.1l-0.1,0.1
						c-7,6-14.3,12-21.9,18.5l-0.2-0.4c30.2,0,63.5,0,98.4,0c5.5,0,11,0,16,0l-0.3,0.3c0-61.7,0-117.7,0.1-160.7l0.2,0.2
						c-28.5,0-51.6-0.1-67.6-0.1c-8,0-14.2,0-18.5,0c-2.1,0-3.7,0-4.8,0C607.8,115.2,607.2,115.1,607.2,115.1z"/>
				</g>
			</g>
			<g>
				<g>
					<path class="st13" d="M615.6,122.2c0,1-0.8,1.9-1.9,1.9c-1,0-1.9-0.8-1.9-1.9c0-1,0.8-1.9,1.9-1.9
						C614.8,120.3,615.6,121.2,615.6,122.2z"/>
					<path class="st13" d="M622.4,122.2c0,1-0.8,1.9-1.9,1.9c-1,0-1.9-0.8-1.9-1.9c0-1,0.8-1.9,1.9-1.9
						C621.6,120.3,622.4,121.2,622.4,122.2z"/>
					<path class="st13" d="M629.2,122.2c0,1-0.8,1.9-1.9,1.9c-1,0-1.9-0.8-1.9-1.9c0-1,0.8-1.9,1.9-1.9
						C628.3,120.3,629.2,121.2,629.2,122.2z"/>
				</g>
				<g>
					<g>
						<g>
							<path class="st10" d="M674.3,166.1c0,0.2-11.7,0.3-26.2,0.3c-14.5,0-26.2-0.1-26.2-0.3s11.7-0.3,26.2-0.3
								C662.6,165.8,674.3,165.9,674.3,166.1z"/>
						</g>
					</g>
					<g>
						<g>
							<path class="st10" d="M685.2,178.9c0,0.2-14.3,0.3-31.9,0.3s-31.9-0.1-31.9-0.3s14.3-0.3,31.9-0.3
								C671,178.6,685.2,178.7,685.2,178.9z"/>
						</g>
					</g>
					<g>
						<g>
							<path class="st10" d="M687.8,226.8c0,0.2-15.2,0.3-34,0.3s-34-0.1-34-0.3s15.2-0.3,34-0.3S687.8,226.7,687.8,226.8z"/>
						</g>
					</g>
					<g>
						<g>
							<path class="st10" d="M626.8,185.5c0,0.2-1.4,0.3-3.2,0.3s-3.2-0.1-3.2-0.3s1.4-0.3,3.2-0.3
								C625.4,185.2,626.8,185.3,626.8,185.5z"/>
						</g>
					</g>
					<g>
						<g>
							<path class="st10" d="M649.1,185.6c0,0.2-3.1,0.3-7,0.3c-3.9,0-7-0.1-7-0.3s3.1-0.3,7-0.3C646,185.3,649.1,185.4,649.1,185.6
								z"/>
						</g>
					</g>
					<g>
						<g>
							<path class="st10" d="M663.4,185.6c0,0.2-2.7,0.3-6,0.3c-3.3,0-6-0.1-6-0.3s2.7-0.3,6-0.3
								C660.7,185.3,663.4,185.4,663.4,185.6z"/>
						</g>
					</g>
					<g>
						<g>
							<path class="st10" d="M625.9,193.8c0,0.2-1.2,0.3-2.8,0.3c-1.5,0-2.8-0.1-2.8-0.3c0-0.2,1.2-0.3,2.8-0.3
								S625.9,193.6,625.9,193.8z"/>
						</g>
					</g>
					<g>
						<g>
							<path class="st10" d="M626.2,202.4c0,0.2-1.3,0.3-2.9,0.3c-1.6,0-2.9-0.1-2.9-0.3s1.3-0.3,2.9-0.3
								C624.9,202.1,626.2,202.2,626.2,202.4z"/>
						</g>
					</g>
					<g>
						<g>
							<path class="st10" d="M626.2,212.1c0,0.2-1.3,0.3-2.9,0.3c-1.6,0-2.9-0.1-2.9-0.3s1.3-0.3,2.9-0.3
								C624.9,211.8,626.2,211.9,626.2,212.1z"/>
						</g>
					</g>
					<g>
						<g>
							<path class="st10" d="M679.1,211.6c0,0.2-9.7,0.3-21.7,0.3s-21.7-0.1-21.7-0.3s9.7-0.3,21.7-0.3
								C669.4,211.3,679.1,211.5,679.1,211.6z"/>
						</g>
					</g>
					<g>
						<g>
							<path class="st10" d="M675.3,202.4c0,0.2-9.2,0.3-20.7,0.3c-11.4,0-20.7-0.1-20.7-0.3s9.2-0.3,20.7-0.3
								C666,202.1,675.3,202.2,675.3,202.4z"/>
						</g>
					</g>
					<g>
						<g>
							<path class="st10" d="M630.4,239.7c0,0.2-1.3,0.3-2.9,0.3c-1.6,0-2.9-0.1-2.9-0.3s1.3-0.3,2.9-0.3
								C629.1,239.4,630.4,239.5,630.4,239.7z"/>
						</g>
					</g>
					<g>
						<g>
							<path class="st10" d="M630.4,249.4c0,0.2-1.3,0.3-2.9,0.3c-1.6,0-2.9-0.1-2.9-0.3s1.3-0.3,2.9-0.3S630.4,249.2,630.4,249.4z"
								/>
						</g>
					</g>
					<g>
						<g>
							<path class="st10" d="M683.3,249c0,0.2-9.7,0.3-21.7,0.3s-21.7-0.1-21.7-0.3s9.7-0.3,21.7-0.3S683.3,248.8,683.3,249z"/>
						</g>
					</g>
					<g>
						<g>
							<path class="st10" d="M679.5,239.7c0,0.2-9.2,0.3-20.7,0.3c-11.4,0-20.7-0.1-20.7-0.3s9.2-0.3,20.7-0.3
								C670.3,239.4,679.5,239.5,679.5,239.7z"/>
						</g>
					</g>
					<g>
						<g>
							<path class="st10" d="M690.6,193.4c0,0.2-12.6,0.3-28.1,0.3c-15.5,0-28.1-0.1-28.1-0.3s12.6-0.3,28.1-0.3
								C678,193.1,690.6,193.2,690.6,193.4z"/>
						</g>
					</g>
					<g>
						<g>
							<path class="st13" d="M698.9,129.6c0,0.2-20.3,0.3-45.4,0.3c-25.1,0-45.4-0.1-45.4-0.3s20.3-0.3,45.4-0.3
								C678.6,129.3,698.9,129.4,698.9,129.6z"/>
						</g>
					</g>
					<g>
						<g>
							<path class="st10" d="M641,158.3c0,0.2-4.3,0.3-9.6,0.3c-5.3,0-9.6-0.1-9.6-0.3s4.3-0.3,9.6-0.3
								C636.8,158,641,158.1,641,158.3z"/>
						</g>
					</g>
					<g>
						<g>
							<path class="st10" d="M630.2,140.7c0,0.2-2,0.3-4.5,0.3s-4.5-0.1-4.5-0.3s2-0.3,4.5-0.3S630.2,140.6,630.2,140.7z"/>
						</g>
					</g>
				</g>
			</g>
		</g>
	</g>
</g>
</svg>
