<svg height="640" viewBox="-24 0 480 480" width="640" xmlns="http://www.w3.org/2000/svg"><path d="M216 32l203.2 203.2c3.198 3.198 4.8 7.198 4.8 11.198V456c0 8.8-7.2 16-16 16H24c-8.8 0-16-7.2-16-16V239.2c0-4 1.602-8.802 4.8-11.2zm0 0" fill="#8e6a65"/><path d="M56 8h320v384H56zm0 0" fill="#e2c8ac"/><g fill="#ceb195"><path d="M272 176h72v16h-72zm0 0M88 208h72v16H88zm0 0M88 240h256v16H88zm0 0M144 272h144v16H144zm0 0M176 208h168v16H176zm0 0M88 176h168v16H88zm0 0"/></g><path d="M272 96c0 30.93-25.07 56-56 56s-56-25.07-56-56 25.07-56 56-56 56 25.07 56 56zm0 0" fill="#71bf79"/><path d="M216 123.2l-29.602-29.598 11.204-11.204L216 100.801l50.398-50.403 11.204 11.204zm0 0" fill="#538457"/><path d="M224 348a16.953 16.953 0 01-15.2 0L9.603 232.8C8.8 234.399 8 236.8 8 239.2V456c0 8.8 7.2 16 16 16h384c8.8 0 16-7.2 16-16V246.398c0-2.398-.8-4-.8-5.597zm0 0" fill="#704d4d"/><path d="M40 416h64v16H40zm0 0" fill="#8e6a65"/><path d="M424.8 229.602L384 188.8V0H48v180.8L7.2 221.603C2.397 226.398 0 232 0 238.398V456c0 13.602 10.398 24 24 24h384c13.602 0 24-10.398 24-24V246.398c0-6.398-2.398-12-7.2-16.796zm-14.402 8.796L384 252.801V212zM368 16v244.8l-148 80c-2.398 1.598-5.602 1.598-8 0L64 255.2V16zM48 245.602l-27.2-15.204L48 203.2zM408 464H24c-4.8 0-8-3.2-8-8V245.602l188 108.796c7.2 4 16 4 23.2 0L416 253.602V456c0 4.8-3.2 8-8 8zm0 0"/><path d="M216 160c35.2 0 64-28.8 64-64h-16c0 26.398-21.602 48-48 48s-48-21.602-48-48 21.602-48 48-48c7.2 0 14.398 1.602 20.8 4.8l7.2-14.402c-8.8-4-18.398-6.398-28-6.398-35.2 0-64 28.8-64 64s28.8 64 64 64zm0 0"/><path d="M197.602 82.398l-11.204 11.204L216 123.199l61.602-61.597-11.204-11.204L216 100.801zm0 0M272 176h72v16h-72zm0 0M88 208h72v16H88zm0 0M88 240h256v16H88zm0 0M144 272h144v16H144zm0 0M40 416h64v16H40zm0 0M176 208h168v16H176zm0 0M88 176h168v16H88zm0 0"/></svg>