<svg width="443" height="1080" fill="none" xmlns="http://www.w3.org/2000/svg"><path d="M50.98 730.297c20.882 5.309 18.759 6.017 20.528 16.635 2.124 12.743-4.247 25.485-4.247 25.485s.354 13.804 7.787 21.945 36.457 12.034 36.457 12.034l1.416 9.203s-12.035.708-16.282 10.618c-3.54 7.787-2.124 21.591 4.247 26.901 7.787 6.371 14.512-.354 23.007 10.264 8.141 10.265 8.141 14.866 6.017 26.546-5.309 27.962 3.894 52.031 28.316 68.313 35.395 23.715 90.966-1.77 124.591-16.636 12.034-5.309 25.838-11.68 38.581-14.866 12.388-3.185 21.237-4.247 32.917-1.769 15.574 3.185 23.361 13.45 32.918 27.254 7.079 10.618 12.388 22.299 18.759 33.271 8.849 15.215 21.945 28.315 26.9 45.665 3.186 11.32 7.276 29.37 10.108 48.84V0c-32.5 0-66.032-.966-98.595 2.928-17.344 2.123-34.334 5.309-50.969 9.91-4.248 1.416-8.141 2.478-12.389 3.894l-6.371 2.123c-2.124.708-4.247 1.416-6.017 2.124l-5.663 2.124-3.54 1.77h-.708l-.708.353h-.353l-1.416.708c-3.894 1.77-7.787 3.54-11.327 5.31-30.086 14.865-55.57 34.333-78.223 53.446-22.653 19.114-42.828 38.935-59.11 59.11-8.494 9.911-15.573 20.175-22.299 30.086-3.185 4.955-6.37 9.91-8.848 14.866-1.416 2.477-2.832 4.955-3.894 7.433-1.415 2.477-2.477 4.955-3.54 7.079-9.202 19.113-14.511 36.811-17.343 51.677-1.77 7.433-2.124 14.158-2.477 19.821-.355 6.017-.355 10.972 0 14.866.353 3.893 1.77 17.697 2.123 19.467 0 .354.354 1.416.354 2.478-11.68 24.422-18.405 53.446-20.529 79.639-2.478 30.793 1.416 80.346 9.91 110.078 7.08 24.069 15.22 13.804 12.743 52.739-1.062 15.928-10.265 33.625-14.866 49.199-6.371 21.591-13.45 36.103-24.777 55.57-11.326 19.114-21.237 33.98-7.433 47.076 20.53 19.113 26.9 20.175 44.244 24.423z" fill="#000" fill-opacity=".1"/></svg>