<svg width="18" height="32" fill="none" xmlns="http://www.w3.org/2000/svg"><path d="M8.63 2.157A6.472 6.472 0 002.156 8.63v8.63a6.472 6.472 0 0012.944 0v-8.63a6.472 6.472 0 00-6.472-6.472zM8.63 0a8.63 8.63 0 018.628 8.63v8.628a8.63 8.63 0 11-17.258 0V8.63A8.63 8.63 0 018.63 0z" fill="#1A1A1A"/><path d="M7.55 6.472a1.079 1.079 0 012.158 0v5.753a1.079 1.079 0 01-2.157 0V6.472zM9.164 31.858a1.079 1.079 0 01-1.07-1.873l5.034-2.877a1.079 1.079 0 011.07 1.873l-5.034 2.877z" fill="#1A1A1A"/><path d="M9.164 29.985a1.079 1.079 0 01-1.07 1.873L3.06 28.98a1.079 1.079 0 011.07-1.873l5.034 2.877z" fill="#1A1A1A"/></svg>